<?xml version="1.0" encoding="utf-8"?>
<!-- Generator: Adobe Illustrator 23.0.1, SVG Export Plug-In . SVG Version: 6.00 Build 0)  -->
<svg version="1.1" xmlns="http://www.w3.org/2000/svg" xmlns:xlink="http://www.w3.org/1999/xlink" x="0px" y="0px"
	 viewBox="0 0 500 416" style="enable-background:new 0 0 500 416;" xml:space="preserve">
<style type="text/css">
	.st0{fill:#FF7400;}
	.st1{fill:#FFFFFF;}
	.st2{fill-rule:evenodd;clip-rule:evenodd;fill:#FFFFFF;}
	.st3{fill:#455A64;}
	.st4{fill:#263238;}
	.st5{fill:#E8505B;}
	.st6{fill:#EBEBEB;}
	.st7{fill:#E0E0E0;}
	.st8{fill:#F5F5F5;}
	.st9{fill:#FFBE9D;}
	.st10{fill:#5193F4;}
	.st11{fill:#0B43A4;}
	.st12{opacity:0.6;}
	.st13{opacity:0.5;}
	.st14{opacity:0.4;}
	.st15{fill:#EB996E;}
</style>
<g id="OBJECTS">
	<g id="XMLID_45_">
		<path id="XMLID_47_" class="st0" d="M356.65,144.43L356.65,144.43c-16.15,7.86-35.6,1.13-43.46-15.02l0,0
			c-7.86-16.15-1.13-35.6,15.02-43.46l0,0c16.15-7.86,35.6-1.13,43.46,15.02l0,0C379.53,117.12,372.8,136.59,356.65,144.43z"/>
		<path id="XMLID_46_" class="st1" d="M334.39,122.47c0.55-0.04,0.88-0.41,0.76-0.98c-0.08-0.39-0.29-1.38-0.37-1.79
			c-0.12-0.57-0.25-0.72-0.82-0.98c-1.27-0.57-2.38-1.54-3.22-3.28c-2.46-5.03-0.88-11.39,5.17-14.34
			c5.36-2.61,9.89-0.76,12.01,3.61c2.79,5.75,2.61,11.84-1.17,13.67c-2.09,1.01-4.49,0.06-5.01-2.3c-0.62-2.83-0.8-6.1-1.68-7.94
			c-0.8-1.64-2.34-2.57-4.15-1.68c-2.13,1.03-2.77,4.08-1.35,7.04c0.92,1.89,2.17,2.85,2.17,2.85s2.32,10.32,2.71,12.11
			c0.8,3.59,3.37,7.24,3.63,7.61c0.16,0.21,0.49,0.14,0.53-0.12c0.08-0.35,1.09-4.72,0.43-8.27c-0.2-1.01-1.27-6.16-1.27-6.16
			c1.33,0.99,3.92,1.17,6.09,0.12c6.42-3.12,7.92-11.08,4.12-18.9c-2.89-5.91-10.57-8.99-18.18-5.29
			c-9.48,4.6-10.94,13.73-8.19,19.39C328.27,120.26,331.06,122.68,334.39,122.47z"/>
	</g>
	<g id="XMLID_38_">
		<path id="XMLID_44_" class="st0" d="M389.12,236.14L389.12,236.14c-11.57-4.43-17.36-17.38-12.95-28.94l0,0
			c4.43-11.57,17.38-17.36,28.94-12.95l0,0c11.57,4.43,17.36,17.38,12.95,28.94l0,0C413.66,234.76,400.69,240.55,389.12,236.14z"/>
		<g id="XMLID_39_">
			<path id="XMLID_41_" class="st2" d="M408.82,219c2.17-6.1-0.98-12.87-7.1-15.21c-6.07-2.32-12.81,0.55-15.35,6.4
				c-0.06,0.16-0.14,0.33-0.2,0.49c-0.8,2.13-0.98,4.31-0.59,6.4l-4.33,5.23l7,0.41c1.27,1.5,2.95,2.73,4.92,3.47
				c6.22,2.38,13.19-0.7,15.56-6.89C408.76,219.19,408.8,219.09,408.82,219z M393.84,224.38c-1.93-0.74-3.49-1.99-4.62-3.55
				l-4.1-0.23l2.52-3.04c-0.55-1.99-0.49-4.15,0.31-6.2c0.12-0.31,0.25-0.6,0.39-0.9c2.28-4.58,7.76-6.77,12.68-4.9
				c4.97,1.91,7.61,7.29,6.14,12.29c-0.08,0.25-0.16,0.51-0.25,0.74C404.94,223.8,399.07,226.39,393.84,224.38z"/>
			<path id="XMLID_40_" class="st2" d="M401.76,219.21c-0.23-0.25-1.33-1.42-1.54-1.62c-0.21-0.2-0.39-0.31-0.68-0.1
				c-0.29,0.2-1.05,0.62-1.29,0.74c-0.23,0.12-0.41,0.08-0.62-0.16c-0.21-0.23-1.01-0.88-1.7-2.2c-0.55-1.03-0.76-2.15-0.82-2.48
				c-0.06-0.33,0.14-0.43,0.33-0.51c0.18-0.08,0.39-0.21,0.6-0.31c0.06-0.04,0.1-0.06,0.16-0.1c0.1-0.08,0.2-0.16,0.29-0.25
				c0.16-0.16,0.18-0.33,0.16-0.49s-0.06-1.74-0.08-2.36c-0.02-0.64-0.29-0.62-0.45-0.68c-0.16-0.06-0.33-0.16-0.53-0.23
				c-0.18-0.08-0.51-0.12-0.88,0.06c-0.35,0.18-1.33,0.57-1.83,1.93c-0.12,0.31-0.18,0.66-0.21,0.99c-0.1,1.07,0.21,2.11,0.25,2.28
				c0.08,0.23,0.74,3.76,3.14,5.95c2.4,2.17,2.54,1.79,3.06,1.95c0.53,0.16,1.89-0.04,2.36-0.59c0.47-0.55,0.68-1.09,0.66-1.25
				C402.13,219.6,401.98,219.45,401.76,219.21z"/>
		</g>
	</g>
	<g id="XMLID_24_">
		<path id="XMLID_26_" class="st0" d="M97.57,132.51L97.57,132.51c-9.44,0-17.11-7.65-17.11-17.11l0,0
			c0-9.44,7.65-17.11,17.11-17.11l0,0c9.44,0,17.11,7.65,17.11,17.11l0,0C114.65,124.85,107.01,132.51,97.57,132.51z"/>
		<path id="XMLID_25_" class="st1" d="M88.46,121.12c1.66,1.05,3.63,1.68,5.73,1.68c6.94,0,10.86-5.87,10.63-11.12
			c0.72-0.53,1.37-1.19,1.87-1.93c-0.66,0.29-1.38,0.51-2.15,0.59c0.78-0.47,1.37-1.19,1.64-2.07c-0.72,0.43-1.52,0.74-2.38,0.92
			c-0.68-0.72-1.66-1.19-2.73-1.19c-2.42,0-4.19,2.24-3.65,4.58c-3.1-0.16-5.87-1.64-7.7-3.9c-0.98,1.68-0.51,3.88,1.15,4.99
			c-0.6-0.02-1.19-0.2-1.7-0.47c-0.04,1.74,1.21,3.35,3,3.71c-0.53,0.14-1.11,0.18-1.7,0.06c0.47,1.48,1.85,2.57,3.49,2.59
			C92.42,120.81,90.43,121.36,88.46,121.12z"/>
	</g>
	<g id="XMLID_4_">
		<path id="XMLID_21_" class="st3" d="M128.29,324.05L128.29,324.05c-15.82,3.76-31.69-6.01-35.48-21.83l0,0
			c-3.76-15.82,6.01-31.69,21.83-35.48l0,0c15.82-3.76,31.69,6.01,35.48,21.83l0,0C153.88,304.39,144.11,320.26,128.29,324.05z"/>
		<g id="XMLID_5_">
			<path id="XMLID_14_" class="st1" d="M118.4,282.52c4.19-0.99,4.7-1.09,6.38-1.42c1.54-0.29,2.44-0.23,3.04-0.16
				c0.8,0.12,1.4,0.33,2.09,0.74s1.15,0.86,1.6,1.52c0.35,0.51,0.8,1.27,1.23,2.79c0.47,1.64,0.6,2.13,1.6,6.32
				c0.99,4.19,1.09,4.7,1.42,6.38c0.29,1.54,0.23,2.44,0.16,3.04c-0.12,0.8-0.33,1.4-0.74,2.09c-0.41,0.68-0.86,1.15-1.52,1.6
				c-0.51,0.35-1.27,0.8-2.79,1.23c-1.64,0.47-2.13,0.6-6.32,1.6c-4.19,0.99-4.7,1.09-6.38,1.42c-1.54,0.29-2.44,0.23-3.04,0.16
				c-0.8-0.12-1.4-0.33-2.09-0.74c-0.68-0.41-1.15-0.86-1.6-1.52c-0.35-0.51-0.8-1.27-1.23-2.79c-0.47-1.64-0.6-2.13-1.6-6.32
				c-0.99-4.19-1.09-4.7-1.42-6.38c-0.29-1.54-0.23-2.44-0.16-3.04c0.12-0.8,0.33-1.4,0.74-2.09c0.41-0.68,0.86-1.15,1.52-1.6
				c0.51-0.35,1.27-0.8,2.79-1.23C113.7,283.65,114.21,283.52,118.4,282.52 M117.72,279.7c-4.27,1.01-4.8,1.17-6.46,1.64
				c-1.66,0.47-2.73,1.01-3.65,1.64c-0.94,0.64-1.68,1.38-2.36,2.48c-0.66,1.07-0.99,2.09-1.15,3.22c-0.16,1.09-0.14,2.3,0.18,3.98
				c0.33,1.7,0.43,2.22,1.44,6.5c1.01,4.27,1.17,4.8,1.64,6.46c0.47,1.66,1.01,2.73,1.64,3.65c0.64,0.94,1.38,1.68,2.48,2.36
				c1.07,0.66,2.09,0.99,3.22,1.15c1.09,0.16,2.3,0.14,3.98-0.18c1.7-0.33,2.22-0.43,6.5-1.44s4.8-1.17,6.46-1.64
				c1.66-0.47,2.73-1.01,3.65-1.64c0.94-0.64,1.68-1.38,2.36-2.48c0.66-1.07,0.99-2.09,1.15-3.22c0.16-1.09,0.14-2.3-0.18-3.98
				c-0.33-1.7-0.43-2.22-1.44-6.5c-1.01-4.27-1.17-4.8-1.64-6.46c-0.47-1.66-1.01-2.73-1.64-3.65c-0.64-0.94-1.38-1.68-2.48-2.36
				c-1.07-0.66-2.09-0.99-3.22-1.15c-1.09-0.16-2.3-0.14-3.98,0.18C122.53,278.56,121.99,278.66,117.72,279.7"/>
			<path id="XMLID_8_" class="st1" d="M119.55,287.32c-4.45,1.05-7.2,5.54-6.14,9.99s5.54,7.2,9.99,6.14
				c4.45-1.05,7.2-5.54,6.14-9.99C128.46,289.02,124,286.27,119.55,287.32 M122.71,300.62c-2.89,0.68-5.79-1.09-6.48-3.98
				c-0.68-2.89,1.09-5.79,3.98-6.48c2.89-0.68,5.79,1.09,6.48,3.98C127.39,297.03,125.6,299.94,122.71,300.62"/>
			<path id="XMLID_7_" class="st1" d="M129.73,284.57c0.25,1.03-0.39,2.09-1.44,2.34c-1.03,0.25-2.09-0.39-2.34-1.44
				c-0.25-1.03,0.39-2.09,1.44-2.34C128.44,282.87,129.48,283.52,129.73,284.57"/>
		</g>
	</g>
	<g id="XMLID_1_">
		<path id="XMLID_3_" class="st3" d="M351.34,298.13L351.34,298.13c-7.59,0-13.73-6.14-13.73-13.73l0,0
			c0-7.59,6.14-13.73,13.73-13.73l0,0c7.59,0,13.73,6.14,13.73,13.73l0,0C365.07,291.98,358.93,298.13,351.34,298.13z"/>
		<path id="XMLID_2_" class="st1" d="M349.26,292.69h3.34v-8.37h2.34l0.25-2.81h-2.57c0,0,0-1.05,0-1.6c0-0.66,0.14-0.92,0.78-0.92
			c0.51,0,1.81,0,1.81,0v-2.91c0,0-1.91,0-2.32,0c-2.5,0-3.61,1.09-3.61,3.2c0,1.83,0,2.24,0,2.24h-1.76v2.85h1.74V292.69z"/>
	</g>
	<g>
		<g>
			<g>
				<g>
					<g>
						<g>
							<g>
								<g>
									<path class="st4" d="M304.51,374l-110.34-0.06c-13.26,0-24.03-10.77-24.01-24.03l0.06-276.61
										c0-13.28,10.77-24.03,24.05-24.03l110.34,0.06c13.26,0,24.03,10.77,24.01,24.03l-0.06,276.59
										C328.56,363.25,317.79,374,304.51,374z"/>
								</g>
							</g>
						</g>
						<g>
							<g>
								<g>
									<path class="st1" d="M304.47,59.12l-21.4-0.02c-2.87,0-5.19,2.44-5.19,5.42v3.88c0,3-2.32,5.42-5.19,5.42L231,73.8
										c-2.87,0-5.19-2.44-5.19-5.44v-3.88c0-3-2.32-5.42-5.19-5.44h-7.53l-18.72-0.02c-9.3,0-16.83,7.53-16.83,16.83
										l-0.06,269.98c0,9.3,7.53,16.83,16.81,16.83l110.1,0.06c9.3,0,16.83-7.53,16.83-16.83l0.06-269.98
										C321.31,66.65,313.78,59.12,304.47,59.12z"/>
								</g>
							</g>
						</g>
					</g>
				</g>
				<g>
					<g>
						<g>
							<g>
								<path class="st4" d="M306.09,81.04c0,0.08-2.79,0.16-6.22,0.18c-3.43,0.02-6.22,0-6.22-0.08c0-0.08,2.79-0.16,6.22-0.18
									C303.3,80.94,306.09,80.96,306.09,81.04z"/>
							</g>
						</g>
					</g>
					<g>
						<g>
							<g>
								<path class="st4" d="M306.11,84.22c0,0.08-2.79,0.16-6.22,0.18c-3.43,0.02-6.22,0-6.22-0.08s2.79-0.16,6.22-0.18
									S306.11,84.16,306.11,84.22z"/>
							</g>
						</g>
					</g>
					<g>
						<g>
							<g>
								<path class="st4" d="M306.15,87.4c0,0.08-2.79,0.16-6.22,0.18c-3.43,0.02-6.22,0-6.22-0.08c0-0.08,2.79-0.16,6.22-0.18
									S306.13,87.34,306.15,87.4z"/>
							</g>
						</g>
					</g>
				</g>
				<g>
					<g>
						<g>
							<path class="st4" d="M189.08,90.5c0,0,0.12-0.02,0.33-0.02c0.25,0,0.55-0.02,0.9-0.04c0.86-0.02,1.97-0.04,3.34-0.08
								l-0.1,0.1c-0.02-0.74-0.02-1.56-0.04-2.42c0-0.45-0.04-0.88,0-1.4c0.1-0.53,0.55-0.98,1.13-1.03c0.55-0.02,1.01-0.04,1.6,0
								c0.6,0.08,1.11,0.64,1.09,1.29c0.02,1.13,0.02,2.32,0.04,3.53l-0.16-0.16c1.35-0.02,2.77-0.02,4.21-0.04l-0.16,0.16
								c-0.02-1.7-0.04-3.45-0.04-5.25c0-0.45,0-0.9-0.02-1.35c0-0.41-0.25-0.68-0.59-0.99c-0.62-0.62-1.25-1.23-1.85-1.81
								c-0.6-0.6-1.19-1.19-1.77-1.76c-0.29-0.29-0.59-0.57-0.86-0.86c-0.29-0.29-0.53-0.59-0.88-0.64c-0.33-0.1-0.7-0.02-0.98,0.18
								c-0.25,0.21-0.53,0.53-0.78,0.78c-0.53,0.53-1.03,1.03-1.52,1.52c-0.96,0.99-1.95,1.89-2.67,2.75
								c-0.31,0.47-0.2,1.05-0.21,1.58c0,0.53,0,1.01,0,1.48c0,0.92-0.02,1.72-0.02,2.4c0,0.6-0.02,1.11-0.02,1.54
								C189.1,90.31,189.1,90.5,189.08,90.5c0,0-0.02-0.18-0.02-0.51c-0.02-0.41-0.02-0.9-0.04-1.5c-0.02-0.68-0.04-1.5-0.06-2.42
								c0-0.47-0.02-0.98-0.02-1.52c0-0.27,0-0.55-0.02-0.84c0-0.29,0.08-0.6,0.23-0.88c0.78-0.96,1.72-1.79,2.67-2.83
								c0.49-0.51,0.99-1.01,1.5-1.54c0.27-0.27,0.49-0.53,0.82-0.8c0.33-0.25,0.8-0.35,1.23-0.23c0.45,0.1,0.74,0.47,1.01,0.72
								c0.29,0.27,0.57,0.57,0.86,0.84c0.59,0.57,1.17,1.15,1.79,1.76c0.6,0.6,1.23,1.21,1.85,1.81c0.16,0.16,0.33,0.29,0.47,0.51
								c0.14,0.21,0.21,0.47,0.21,0.7c0,0.45,0,0.9,0.02,1.35c0.02,1.79,0.02,3.55,0.04,5.25v0.16h-0.16
								c-1.46,0-2.87,0.02-4.21,0.02h-0.16v-0.16c0-1.23-0.02-2.4-0.02-3.53c0.02-0.51-0.37-0.96-0.86-1.01
								c-0.49-0.02-1.05,0-1.52,0c-0.45,0.04-0.84,0.41-0.92,0.82c-0.04,0.43,0,0.92-0.02,1.35c0,0.88,0,1.68,0,2.42v0.1h-0.1
								c-1.4-0.02-2.54-0.02-3.39-0.02c-0.35,0-0.64-0.02-0.88-0.02C189.18,90.52,189.08,90.52,189.08,90.5z"/>
						</g>
					</g>
				</g>
				<g>
					<g>
						<g>
							<g>
								<path class="st3" d="M261.87,301.46c0,0.02-0.41,0.06-1.15,0.08c-0.82,0.02-1.87,0.04-3.16,0.06
									c-2.65,0.04-6.34,0.06-10.4,0.06s-7.74-0.02-10.4-0.06c-1.27-0.02-2.32-0.06-3.16-0.06c-0.74-0.02-1.15-0.06-1.15-0.08
									s0.41-0.06,1.15-0.08c0.82-0.02,1.87-0.04,3.16-0.06c2.65-0.04,6.34-0.06,10.4-0.06s7.74,0.02,10.4,0.06
									c1.27,0.02,2.32,0.06,3.16,0.06C261.47,301.42,261.87,301.44,261.87,301.46z"/>
							</g>
							<g>
								<path class="st3" d="M308.12,308.72c0,0.12-16.93,0.21-37.84,0.21c-20.89,0-37.84-0.1-37.84-0.21
									c0-0.12,16.93-0.21,37.84-0.21C291.17,308.5,308.12,308.6,308.12,308.72z"/>
							</g>
							<g>
								<path class="st3" d="M284.46,315.53c0,0.12-11.64,0.21-26,0.21c-14.37,0-26.02-0.1-26.02-0.21c0-0.12,11.64-0.21,26.02-0.21
									C272.82,315.31,284.46,315.41,284.46,315.53z"/>
							</g>
						</g>
					</g>
					<g>
						<path class="st4" d="M309.6,328.77l-2.36-2.36l-2.24,2.22l0.02-6.75h4.58V328.77z M307.26,326.12l0.08,0.08l2.07,2.07v-6.16
							h-4.17v6.05L307.26,326.12z"/>
					</g>
					<g>
						<path class="st4" d="M247.01,327.89l-0.84-0.37c-0.41,0.21-0.76,0.33-1.07,0.33c-1.27,0.02-2.32-1.01-2.32-2.28
							c-0.02-1.27,1.01-2.32,2.28-2.32c1.27-0.02,2.32,1.01,2.32,2.28c0,0.57-0.2,1.11-0.57,1.54L247.01,327.89z M245.08,323.41
							c-1.19,0-2.15,0.98-2.13,2.17c0,1.19,0.98,2.15,2.17,2.13c0.31,0,0.64-0.12,1.03-0.33l0.04-0.02l0.6,0.27l-0.14-0.6l0.02-0.04
							c0.37-0.41,0.57-0.92,0.57-1.46C247.23,324.34,246.25,323.39,245.08,323.41z"/>
					</g>
					<g>
						<path class="st4" d="M252.34,327.54l-0.96-2.32l-1.77-1.62l4.33-0.04L252.34,327.54z M250.02,323.76l1.52,1.38l0.82,1.97
							l1.37-3.39L250.02,323.76z"/>
					</g>
					<g>
						
							<rect x="251.31" y="324.34" transform="matrix(0.8382 -0.5454 0.5454 0.8382 -136.043 190.3238)" class="st4" width="2.81" height="0.16"/>
					</g>
					<g>
						<path class="st5" d="M240.21,324.07c-0.12-0.62-0.74-1.09-1.37-1.07s-1.19,0.55-1.27,1.17c-0.1-0.62-0.66-1.13-1.29-1.15
							c-0.62-0.02-1.23,0.47-1.35,1.09c-0.08,0.45,0.08,0.92,0.33,1.31s0.6,0.68,0.96,0.99c0.49,0.43,0.94,0.82,1.4,1.25
							c0.47-0.43,0.88-0.84,1.35-1.27c0.33-0.31,0.68-0.62,0.94-1.01C240.15,325,240.3,324.54,240.21,324.07z"/>
					</g>
					<g>
						<path class="st4" d="M314.42,334.74c0,0,0-0.25-0.02-0.76c0-0.51,0-1.23-0.02-2.18c0-1.93-0.02-4.78-0.04-8.45
							c-0.02-7.35-0.04-18.06-0.08-31.48l0.14,0.14c-30.78,0.02-76.75,0.04-127.95,0.08l0,0l0.21-0.21c0,14.9,0,29.35,0,42.87
							l-0.2-0.2c36.84,0.04,68.79,0.08,91.55,0.1c11.39,0.02,20.48,0.04,26.72,0.06c3.12,0.02,5.54,0.02,7.18,0.02
							c0.82,0,1.42,0.02,1.85,0.02C314.21,334.74,314.42,334.74,314.42,334.74s-0.2,0-0.62,0.02c-0.43,0-1.03,0-1.83,0.02
							c-1.64,0-4.02,0.02-7.14,0.02c-6.24,0.02-15.31,0.04-26.68,0.06c-22.8,0.02-54.81,0.06-91.71,0.1h-0.2v-0.2
							c0-13.52,0-27.97,0-42.87v-0.21h0.21l0,0c51.22,0.02,97.17,0.06,127.95,0.08h0.14v0.14c-0.04,13.46-0.06,24.19-0.08,31.56
							c-0.02,3.67-0.02,6.5-0.04,8.43c0,0.96-0.02,1.68-0.02,2.17C314.44,334.5,314.42,334.74,314.42,334.74z"/>
					</g>
					<g>
						<g>
							<g>
								<g>
									
										<rect x="195.26" y="295.6" transform="matrix(5.681080e-03 -1 1 5.681080e-03 -105.0695 520.963)" class="st6" width="28.34" height="35.44"/>
									<g>
										<path class="st4" d="M227.23,299.24c0,0-0.06,0-0.18,0.02c-0.14,0-0.29,0-0.51,0c-0.47,0-1.11,0-1.93,0.02
											c-1.7,0-4.15,0-7.28,0c-6.24-0.02-15.08-0.04-25.57-0.06l0.2-0.2c-0.04,8.45-0.1,18.1-0.14,28.34
											c0.04,0.06-0.39-0.39-0.2-0.21l0,0h0.02h0.04h0.08h0.16h0.31h0.6h1.23c0.82,0,1.62,0,2.42,0.02
											c1.62,0.02,3.2,0.02,4.78,0.02c3.14,0.02,6.22,0.04,9.21,0.06c5.95,0.04,11.53,0.08,16.6,0.12l-0.18,0.18
											c0.08-8.5,0.16-15.56,0.21-20.52c0.04-2.46,0.06-4.41,0.08-5.75c0.02-0.64,0.02-1.15,0.02-1.52
											C227.22,299.43,227.23,299.24,227.23,299.24s0.02,0.16,0.02,0.51c0,0.35,0,0.86,0.02,1.48c0,1.35,0,3.26,0.02,5.71
											c0,4.97-0.02,12.07-0.02,20.64v0.18h-0.18c-5.07-0.02-10.65-0.04-16.6-0.08c-2.98-0.02-6.05-0.04-9.21-0.04
											c-1.58,0-3.16-0.02-4.78-0.02c-0.8,0-1.62,0-2.42-0.02h-1.23h-0.6h-0.31h-0.16h-0.08h-0.04h-0.02l0,0
											c0.18,0.2-0.25-0.25-0.21-0.21c0.06-10.24,0.14-19.89,0.18-28.34v-0.2h0.2c10.55,0.1,19.43,0.18,25.69,0.23
											c3.08,0.04,5.54,0.08,7.22,0.1c0.82,0.02,1.44,0.02,1.89,0.04c0.2,0,0.35,0.02,0.49,0.02
											C227.18,299.24,227.23,299.24,227.23,299.24z"/>
									</g>
								</g>
							</g>
						</g>
						
							<rect x="197.03" y="296.82" transform="matrix(5.683676e-03 -1 1 5.683676e-03 -105.0698 520.9355)" class="st7" width="24.77" height="32.96"/>
						<polygon class="st8" points="192.85,325.61 204.45,310.28 211.53,319.95 216.39,314.82 225.81,325.78 						"/>
						<g>
							<g>
								<path class="st8" d="M214.62,308.45c0,1.42-1.17,2.59-2.61,2.57c-1.42,0-2.59-1.17-2.57-2.61c0-1.42,1.17-2.59,2.61-2.57
									C213.46,305.83,214.63,307,214.62,308.45z"/>
							</g>
						</g>
					</g>
				</g>
				<g>
					<g>
						<g>
							<g>
								<g>
									<path class="st4" d="M251.56,115.41c0,0.02-0.14,0.02-0.37,0.04c-0.29,0.02-0.66,0.02-1.09,0.04
										c-1.01,0.02-2.36,0.04-4,0.06c-3.37,0.04-8.04,0.06-13.17,0.06c-5.15,0-9.81-0.02-13.17-0.06c-1.64-0.02-2.98-0.06-4-0.06
										c-0.43-0.02-0.78-0.02-1.09-0.04c-0.25-0.02-0.37-0.02-0.37-0.04c0-0.02,0.14-0.02,0.37-0.04
										c0.29-0.02,0.66-0.02,1.09-0.04c1.01-0.02,2.36-0.04,4-0.06c3.37-0.04,8.04-0.06,13.17-0.06c5.15,0,9.79,0.02,13.17,0.06
										c1.64,0.02,2.98,0.06,4,0.06c0.43,0.02,0.78,0.02,1.09,0.04C251.42,115.39,251.56,115.39,251.56,115.41z"/>
								</g>
							</g>
						</g>
						<g>
							<g>
								<path class="st4" d="M303.93,272.07l-3.49-3.51l-3.34,3.32l0.02-10.03l6.83,0.02L303.93,272.07z M300.44,268.13l0.12,0.12
									l3.08,3.08l0.02-9.15h-6.2l-0.02,8.97L300.44,268.13z"/>
							</g>
							<g>
								<path class="st4" d="M215.22,271.02l-1.64-0.72c-0.78,0.43-1.48,0.64-2.11,0.64c-2.5,0.02-4.54-1.99-4.56-4.51
									c-0.02-2.5,1.99-4.54,4.51-4.56c2.5-0.02,4.54,1.99,4.56,4.51c0,1.11-0.39,2.18-1.13,3.02L215.22,271.02z M211.4,262.16
									c-2.32,0.02-4.21,1.93-4.19,4.25c0.02,2.32,1.93,4.21,4.25,4.19c0.6,0,1.27-0.21,2.03-0.64l0.06-0.04l1.21,0.55l-0.27-1.19
									l0.06-0.06c0.72-0.8,1.11-1.81,1.11-2.87C215.65,264.03,213.74,262.14,211.4,262.16z"/>
							</g>
							<g>
								<path class="st4" d="M225.71,270.31l-1.87-4.56l-3.51-3.2l8.5-0.08L225.71,270.31z M221.13,262.84l2.98,2.75l1.6,3.88
									l2.67-6.69L221.13,262.84z"/>
							</g>
							<g>
								
									<rect x="223.65" y="263.96" transform="matrix(0.8382 -0.5453 0.5453 0.8382 -107.4 166.1993)" class="st4" width="5.54" height="0.31"/>
							</g>
							<g>
								<path class="st5" d="M201.82,263.49c-0.23-1.21-1.44-2.17-2.69-2.11c-1.23,0.04-2.34,1.07-2.5,2.28
									c-0.18-1.21-1.31-2.22-2.54-2.24c-1.25-0.02-2.42,0.94-2.65,2.17c-0.16,0.9,0.14,1.81,0.64,2.56
									c0.51,0.74,1.19,1.37,1.87,1.95c0.96,0.84,1.83,1.62,2.77,2.46c0.94-0.86,1.74-1.66,2.67-2.52c0.66-0.6,1.35-1.23,1.83-1.99
									C201.7,265.3,202,264.38,201.82,263.49z"/>
							</g>
						</g>
						<circle class="st6" cx="201.04" cy="115.41" r="5.77"/>
					</g>
					<g>
						<g>
							<path class="st3" d="M301.74,238.93c0,0.12-24.21,0.21-54.07,0.21s-54.09-0.1-54.09-0.21c0-0.12,24.21-0.21,54.09-0.21
								C277.54,238.74,301.74,238.81,301.74,238.93z"/>
						</g>
						<g>
							<path class="st3" d="M301.74,229.94c0,0.12-24.21,0.21-54.07,0.21s-54.09-0.1-54.09-0.21s24.21-0.21,54.09-0.21
								C277.54,229.72,301.74,229.82,301.74,229.94z"/>
						</g>
						<g>
							<path class="st3" d="M252.45,248.06c0,0.12-13.19,0.21-29.43,0.21c-16.27,0-29.43-0.1-29.43-0.21s13.19-0.21,29.43-0.21
								C239.27,247.86,252.45,247.94,252.45,248.06z"/>
						</g>
					</g>
				</g>
				<g>
					<g>
						<path class="st4" d="M245.2,346.19c0,1.29-1.03,2.32-2.3,2.32c-1.27,0-2.3-1.05-2.28-2.34c0-1.29,1.03-2.32,2.3-2.32
							C244.16,343.85,245.2,344.9,245.2,346.19z"/>
					</g>
					<g>
						<path class="st4" d="M252.32,346.23c0,1.29-1.03,2.32-2.3,2.32c-1.27,0-2.3-1.05-2.28-2.34c0-1.29,1.03-2.32,2.3-2.32
							C251.28,343.88,252.32,344.94,252.32,346.23z"/>
					</g>
					<g>
						<path class="st4" d="M259.44,346.24c0,1.29-1.03,2.32-2.3,2.32s-2.3-1.05-2.28-2.34c0-1.29,1.03-2.32,2.3-2.32
							C258.4,343.92,259.44,344.96,259.44,346.24z"/>
					</g>
				</g>
			</g>
			<g>
				<rect x="187.23" y="126.84" class="st7" width="127.97" height="78.25"/>
				<polygon class="st8" points="199.05,205.11 235.72,156.04 258.44,186.72 273.85,170.31 304.06,205.07 				"/>
				<g>
					<g>
						<path class="st8" d="M268.08,150.01c0,4.56-3.71,8.27-8.27,8.27c-4.56,0-8.27-3.71-8.27-8.27s3.71-8.27,8.27-8.27
							C264.37,141.74,268.08,145.45,268.08,150.01z"/>
					</g>
				</g>
			</g>
			<g>
				<path class="st4" d="M314.85,277.82c0-1.68-0.08-72.36-0.2-177.02l0.2,0.2c-38.58,0-82.09,0.02-127.95,0.02h-0.02l0.21-0.21
					c-0.02,66.2-0.02,127.48-0.04,177.02l-0.18-0.18C264.49,277.76,313.45,277.82,314.85,277.82c-1.4,0-50.36,0.06-127.97,0.18
					h-0.18v-0.18c-0.02-49.56-0.02-110.83-0.04-177.02v-0.21h0.21h0.02c45.86,0,89.37,0.02,127.95,0.02h0.2v0.2
					c-0.04,52.37-0.08,96.66-0.1,127.83c-0.02,15.56-0.04,27.87-0.06,36.3c-0.02,4.19-0.02,7.43-0.02,9.6c0,1.09,0,1.91-0.02,2.46
					C314.85,277.55,314.85,277.82,314.85,277.82z"/>
			</g>
		</g>
	</g>
	<g>
		<g>
			<g>
				<g>
					<path class="st9" d="M254.72,299.79l2.83-9.52c0.49-2.07,1.15-4.51,2.03-7.28c0.8-2.5,2.83-5.11,4.68-7
						c2.89-2.95,4.27-2.96,6.2-4.53c0.18-0.12,0.37-0.27,0.55-0.37c0.41-0.21,0.7-0.51,0.94-0.82c1.68-1.81,0.06-4.6-3.34-4.35
						c-2.56,0.2-6.73,0.94-13.52,7.94c-0.08,0.1-0.18,0.2-0.25,0.31c-3.57,4.62-6.9-8.58-7.51-13.5c-0.39-3.2-3.84-5.15-6.96-4
						l-16.54,7.72c-1.37-0.49-2.98-0.39-4.82,0.16c-2.44,0.9-3.78,3.39-3.14,5.83l6.71,26.76l-19.7,65.54h42.44L254.72,299.79z"/>
				</g>
				<g>
					<g>
						<g>
							<g>
								<path class="st10" d="M287.33,239.59L274.2,265.3l-6.55-1.81l-32.98,26.82c-2.81,2.28-6.92,1.91-9.28-0.82l-12.56-14.59
									c0,0,25.32-10.9,30-19.93c4.68-9.03-0.72-11.08-0.72-11.08l11.92-13.54L287.33,239.59z"/>
							</g>
						</g>
						<g>
							<path class="st10" d="M270.3,187.09c0,0-19.21-4.25-46.23-30.23c-27.03-26-39.73-60.52-43.03-60.35
								c-3.32,0.18-17.75-6.53-45.23,53.23s-16.66,73.65-11.18,73.53c5.46-0.12,42.6-10.45,65.77-7.82
								c23.19,2.63,52.99,14.73,52.99,14.73L270.3,187.09z"/>
						</g>
						<g>
							<path class="st5" d="M311.1,219.66l-6.55,12.46l-2.95,5.58c-4.02,7.65-13.34,10.83-21.2,7.2l-41.17-14.34l23.97-54.73
								l41.14,21.92C312.26,201.95,315.28,211.74,311.1,219.66z"/>
						</g>
						<g>
							<path class="st11" d="M311.1,219.66l-6.55,12.46l-2.95,5.58c-4.02,7.65-13.34,10.83-21.2,7.2l-41.17-14.34l23.97-54.73
								l41.14,21.92C312.26,201.95,315.28,211.74,311.1,219.66z"/>
						</g>
						<g>
							<path class="st5" d="M138.04,150.81c-14.63,32.38-20.71,61.22-13.59,64.44s24.73-20.42,39.36-52.8
								c14.63-32.38,20.71-61.22,13.59-64.44C170.28,94.79,152.65,118.45,138.04,150.81z"/>
						</g>
						<g>
							<path class="st11" d="M138.04,150.81c-14.63,32.38-20.71,61.22-13.59,64.44s24.73-20.42,39.36-52.8
								c14.63-32.38,20.71-61.22,13.59-64.44C170.28,94.79,152.65,118.45,138.04,150.81z"/>
						</g>
					</g>
					<g>
						<polygon class="st10" points="314.65,237.66 303.48,234.15 310.4,221.03 318.77,226.23 						"/>
					</g>
					<g class="st12">
						<polygon points="310.4,221.03 303.48,234.15 305.78,234.87 311.4,221.65 						"/>
					</g>
					<g>
						<path class="st10" d="M302.7,224.05c-0.16,0.37-5.73-1.79-12.44-4.84c-6.71-3.02-12.01-5.77-11.84-6.14
							c0.16-0.35,5.73,1.81,12.44,4.84C297.57,220.95,302.87,223.7,302.7,224.05z"/>
					</g>
					<g>
						<path class="st10" d="M306.13,216.23c-0.18,0.35-5.21-1.77-11.25-4.74c-6.05-2.98-10.81-5.68-10.63-6.03
							c0.18-0.35,5.21,1.77,11.25,4.74C301.55,213.18,306.31,215.88,306.13,216.23z"/>
					</g>
					<g>
						<path class="st10" d="M298.37,232.26c-0.06,0.2-1.38-0.12-3.49-0.76c-1.05-0.33-2.3-0.74-3.69-1.21
							c-1.38-0.51-2.81-1.23-4.33-1.91c-6.1-2.83-10.77-5.62-10.61-5.93c0.18-0.39,5.17,1.83,11.22,4.64
							c1.52,0.68,2.93,1.44,4.25,1.99c1.33,0.55,2.54,1.03,3.53,1.48C297.22,231.42,298.43,232.07,298.37,232.26z"/>
					</g>
					<g>
						<path class="st10" d="M167.84,143.61c0,0-16.7-10.36-25.82,12.21c-9.13,22.55,8.43,26.25,8.43,26.25
							C157.62,170.94,163.47,158.16,167.84,143.61z"/>
					</g>
					<g class="st13">
						<path d="M185.59,116.73c0.1,0.02-0.14,1.54-0.66,4.31c-0.53,2.75-1.27,6.75-2.34,11.66c-0.7,2.42-1.48,5.05-2.3,7.9
							c-0.41,1.42-0.86,2.89-1.31,4.39c-0.21,0.76-0.45,1.52-0.68,2.3c-0.25,0.78-0.57,1.52-0.86,2.3c-1.21,3.1-2.46,6.36-3.76,9.73
							c-0.33,0.84-0.66,1.7-0.99,2.56c-0.33,0.86-0.78,1.68-1.17,2.52c-0.82,1.68-1.64,3.39-2.48,5.11
							c-0.84,1.74-1.68,3.43-2.5,5.11c-0.43,0.84-0.78,1.7-1.25,2.48c-0.47,0.8-0.94,1.58-1.38,2.36c-1.85,3.12-3.63,6.12-5.32,8.99
							c-0.43,0.7-0.82,1.42-1.29,2.11c-0.47,0.66-0.94,1.31-1.38,1.97c-0.92,1.29-1.79,2.54-2.65,3.74
							c-1.72,2.4-3.32,4.64-4.78,6.69c-3.2,3.86-5.87,6.92-7.7,9.03c-1.85,2.11-2.91,3.24-2.98,3.18s0.84-1.33,2.56-3.53
							c1.77-2.26,4.29-5.42,7.35-9.32c1.4-2.07,2.95-4.33,4.6-6.75c0.84-1.21,1.7-2.46,2.57-3.74c0.45-0.64,0.9-1.29,1.35-1.95
							s0.82-1.4,1.25-2.11c1.66-2.87,3.41-5.85,5.21-8.97c0.45-0.78,0.92-1.56,1.37-2.34c0.47-0.78,0.82-1.64,1.25-2.48
							c0.82-1.68,1.64-3.37,2.46-5.09c0.84-1.72,1.66-3.41,2.48-5.07c0.39-0.84,0.86-1.64,1.17-2.5c0.33-0.86,0.66-1.7,0.99-2.54
							c1.33-3.34,2.61-6.55,3.82-9.64c0.29-0.78,0.62-1.52,0.88-2.28c0.23-0.76,0.47-1.52,0.7-2.28c0.47-1.5,0.92-2.95,1.37-4.35
							c0.88-2.81,1.7-5.4,2.46-7.8c1.15-4.82,2.11-8.74,2.77-11.53C185.07,118.22,185.49,116.71,185.59,116.73z"/>
					</g>
				</g>
				<g class="st14">
					<path d="M216.84,273.1c1.52,2.77,3.08,5.58,5.32,7.78c2.26,2.2,5.34,3.78,8.48,3.45c3.14-0.31,6.12-2.93,6.14-6.09
						c1.5,1.13,3.82,0.53,5.07-0.9c1.25-1.4,1.66-3.37,1.79-5.25c2.05,1.21,4.9,0.25,6.26-1.7s1.44-4.56,0.78-6.85
						c-0.66-2.28-1.99-4.31-3.3-6.3c1.58,0.14,3.24,0.23,4.66-0.47c1.4-0.72,2.36-2.57,1.54-3.94c-0.49-0.8-1.4-1.19-2.3-1.46
						c-2.48-0.78-4.19-1.38-6.77-1.09c-0.6,0,1.03,6.79-15.12,16.05C219.92,271.83,216.84,273.1,216.84,273.1z"/>
				</g>
			</g>
			<g>
				<path class="st15" d="M253.18,282.89c-0.02,0.08-1.09-0.14-2.83-0.08c-1.74,0.04-4.15,0.41-6.53,1.56
					c-2.4,1.15-4.21,2.79-5.32,4.12c-1.13,1.33-1.64,2.3-1.7,2.26c-0.02-0.02,0.08-0.27,0.31-0.7c0.23-0.43,0.62-1.03,1.15-1.74
					c1.07-1.4,2.91-3.14,5.36-4.31s4.95-1.52,6.73-1.48c0.88,0.02,1.6,0.1,2.09,0.2C252.92,282.8,253.18,282.87,253.18,282.89z"/>
			</g>
			<path class="st9" d="M217.89,268.81c2.59,2.5,4.37,5.25,7.1,7.76c1.25,1.15,3.16,3.32,4.82,3.59c1.66,0.29,2.73,0.06,3.37-1.48
				c0.53-1.25-0.43-2.98-1.09-4.02c-1.74-2.73-3.39-4.86-4.7-6.98c-0.6-0.99,0.18-1.19,0.47-0.74c1.25,1.31,3.12,2.42,4.23,3.84
				c1.54,1.93,1.81,4.49,5.83,3.69c0.53-0.1,1.05-0.29,1.48-0.62c1.52-1.15,1.58-3.16,0.94-4.78c-0.51-1.27-1.37-2.34-2.24-3.37
				c1.72,1.93,3.57,3.96,6.3,4.17c1.58,0.14,3.16-0.6,3.8-2.07c0.8-1.83-0.35-3.59-1.5-5.01c-2.05-2.54-4.33-4.88-6.83-6.96
				c-0.92-0.78-2.11-1.23-3.32-1.23c-1.4,0-3.16,0.25-4.04,1.48c-1.58,2.22-1.09,4.17-1.09,4.17s-3.53-1.79-6.36,0.08
				s-3.53,5.09-3.53,5.09L217.89,268.81z"/>
			<path class="st9" d="M236.64,253.83c-1.09-1.09-1.35-3.1-0.51-4.76c0.6-1.17,1.37-2.32,2.13-2.57c3.35-1.13,18,1.4,17.87,4.66
				c-0.14,3.34-1.21,4.82-9.15,3.67c-1.4-0.2-3.59-0.47-3.59-0.47l-1.91,2.89L236.64,253.83z"/>
		</g>
		<g>
			<path class="st15" d="M239.27,267.45c-0.12,0.08-1.23-2.2-3.51-4.25c-2.26-2.07-4.62-2.95-4.56-3.08
				c0.02-0.04,0.62,0.12,1.56,0.55c0.92,0.43,2.15,1.17,3.3,2.22s2.01,2.18,2.54,3.06C239.09,266.84,239.31,267.43,239.27,267.45z"
				/>
		</g>
		<g>
			<path class="st15" d="M241.73,257.46c-0.08,0.06-1.03-0.72-2.36-1.52c-0.66-0.41-1.27-0.74-1.72-0.96
				c-0.45-0.21-0.76-0.27-0.76-0.33c0-0.06,0.35-0.1,0.86,0.06c0.51,0.14,1.17,0.45,1.83,0.88
				C240.95,256.41,241.82,257.36,241.73,257.46z"/>
		</g>
		<g>
			<path class="st15" d="M244.18,254.44c0,0.1-1.29,0.12-2.83-0.31c-0.76-0.23-1.4-0.6-1.81-0.94c-0.41-0.35-0.57-0.62-0.53-0.66
				c0.08-0.08,0.99,0.8,2.46,1.21C242.96,254.14,244.22,254.3,244.18,254.44z"/>
		</g>
		<g>
			<path class="st15" d="M229.95,271.48c-0.04,0.04-0.57-0.62-1.35-1.74c-0.78-1.09-1.79-2.69-3.41-3.88
				c-1.64-1.19-3.55-1.46-4.84-1.29c-1.31,0.18-2.01,0.72-2.05,0.64c-0.02-0.02,0.14-0.18,0.47-0.37c0.33-0.21,0.84-0.43,1.52-0.57
				c1.35-0.27,3.39-0.02,5.13,1.23c1.72,1.27,2.69,2.95,3.41,4.06C229.58,270.72,230,271.44,229.95,271.48z"/>
		</g>
		<g>
			<path class="st15" d="M241.16,303.88c0.02,0.12-2.67,0.51-5.99,0.86c-3.32,0.37-6.03,0.57-6.03,0.45
				c-0.02-0.12,2.67-0.51,5.99-0.86C238.45,303.96,241.14,303.76,241.16,303.88z"/>
		</g>
	</g>
	<g>
		<polygon class="st0" points="367.22,37.78 368.12,39.42 369.77,40.32 368.12,41.23 367.22,42.87 366.3,41.23 364.66,40.32 
			366.3,39.42 		"/>
		<polygon class="st0" points="386.1,78.72 387,80.36 388.65,81.28 387,82.17 386.1,83.83 385.2,82.17 383.54,81.28 385.2,80.36 		
			"/>
		<polygon class="st0" points="83.37,187.95 84.29,189.6 85.92,190.5 84.29,191.42 83.37,193.06 82.47,191.42 80.81,190.5 
			82.47,189.6 		"/>
		<polygon class="st0" points="342.43,47.94 344.52,51.76 348.34,53.85 344.52,55.94 342.43,59.74 340.34,55.94 336.54,53.85 
			340.34,51.76 		"/>
		<polygon class="st0" points="100.3,162 102.39,165.81 106.19,167.88 102.39,169.96 100.3,173.77 98.23,169.96 94.43,167.88 
			98.23,165.81 		"/>
		<polygon class="st0" points="391.23,252.8 393.32,256.6 397.12,258.67 393.32,260.76 391.23,264.56 389.16,260.76 385.36,258.67 
			389.16,256.6 		"/>
	</g>
</g>
<g id="DESIGNED_BY_FREEPIK">
</g>
</svg>
