<?xml version="1.0" encoding="utf-8"?>
<!-- Generator: Adobe Illustrator 23.0.1, SVG Export Plug-In . SVG Version: 6.00 Build 0)  -->
<svg version="1.1" xmlns="http://www.w3.org/2000/svg" xmlns:xlink="http://www.w3.org/1999/xlink" x="0px" y="0px"
	 viewBox="0 0 500 416" style="enable-background:new 0 0 500 416;" xml:space="preserve">
<style type="text/css">
	.st0{fill:#DCE0E5;}
	.st1{fill:#FFFFFF;}
	.st2{fill:#141E2B;}
	.st3{fill:none;stroke:#B0B8C4;stroke-width:1.5;stroke-linecap:round;stroke-linejoin:round;stroke-miterlimit:10;}
	.st4{fill:#E29076;}
	.st5{fill:#F4AE95;}
	.st6{fill:#00AF60;}
	.st7{fill:#22C075;}
	.st8{fill:#263448;}
	.st9{fill:#1740E1;}
	.st10{fill:#B4BBC8;}
	.st11{fill:#A3ACBC;}
	.st12{fill:#38526D;}
	.st13{fill:#EAAD00;}
	.st14{fill:#FFD31A;}
	.st15{fill:#7A3D30;}
	.st16{fill:#6E3325;}
	.st17{fill:#FC7381;}
	.st18{fill:#FC808F;}
	.st19{fill:#1943F1;}
</style>
<g id="OBJECTS">
	<g>
		<g>
			<path class="st0" d="M279.66,367.1h-89.53c-2.3,0-4.17-1.87-4.17-4.17l0,0c0-2.3,1.87-4.17,4.17-4.17h89.53
				c2.3,0,4.17,1.87,4.17,4.17l0,0C283.83,365.24,281.97,367.1,279.66,367.1z"/>
			<path class="st0" d="M411.24,346.5l-254.99-0.21c-5.28,0-9.55-4.28-9.54-9.56l0.24-293.3c0-5.28,4.28-9.55,9.56-9.54l254.99,0.21
				c5.28,0,9.55,4.28,9.54,9.56l-0.24,293.3C420.79,342.23,416.51,346.51,411.24,346.5z"/>
			<g>
				<rect x="366.18" y="47.42" class="st1" width="40.56" height="12.25"/>
				<rect x="340.39" y="56.95" class="st1" width="40.56" height="12.25"/>
			</g>
			<g>
				<rect x="171.96" y="255.86" class="st1" width="40.56" height="12.25"/>
				<rect x="146.17" y="265.39" class="st1" width="40.56" height="12.25"/>
			</g>
			<g>
				<rect x="367.54" y="311.44" class="st1" width="40.56" height="12.25"/>
				<rect x="341.76" y="320.97" class="st1" width="40.56" height="12.25"/>
			</g>
			<g>
				<rect x="187.33" y="55.28" class="st1" width="40.56" height="12.25"/>
				<rect x="161.54" y="64.81" class="st1" width="40.56" height="12.25"/>
			</g>
			<path class="st2" d="M352.53,212.27H132.18c-5.66,0-10.24-4.59-10.24-10.24V74.37c0-5.66,4.59-10.24,10.24-10.24h220.35
				c5.66,0,10.24,4.59,10.24,10.24v127.66C362.77,207.68,358.18,212.27,352.53,212.27z"/>
			<path class="st1" d="M128.62,203.34V73.05c0-1.24,1-2.24,2.24-2.24h222.99c1.24,0,2.24,1,2.24,2.24v130.29
				c0,1.24-1,2.24-2.24,2.24H130.86C129.62,205.58,128.62,204.58,128.62,203.34z"/>
			<g>
				<g>
					<line class="st3" x1="287.17" y1="148.16" x2="340.01" y2="148.16"/>
					<line class="st3" x1="287.17" y1="155.17" x2="340.01" y2="155.17"/>
					<line class="st3" x1="287.17" y1="162.17" x2="340.01" y2="162.17"/>
					<line class="st3" x1="287.17" y1="169.18" x2="340.01" y2="169.18"/>
					<line class="st3" x1="287.17" y1="176.18" x2="340.01" y2="176.18"/>
					<line class="st3" x1="287.17" y1="183.19" x2="340.01" y2="183.19"/>
					<line class="st3" x1="287.17" y1="190.19" x2="340.01" y2="190.19"/>
				</g>
				<path class="st3" d="M335.25,131.51h-47.26c-2.89,0-5.24-2.35-5.24-5.24V91.09c0-2.89,2.35-5.24,5.24-5.24h47.26
					c2.89,0,5.24,2.35,5.24,5.24v35.19C340.49,129.17,338.14,131.51,335.25,131.51z"/>
				<g>
					<line class="st3" x1="143.33" y1="85.85" x2="196.17" y2="85.85"/>
					<line class="st3" x1="143.33" y1="93.46" x2="196.17" y2="93.46"/>
					<line class="st3" x1="143.33" y1="101.07" x2="196.17" y2="101.07"/>
					<line class="st3" x1="143.33" y1="108.68" x2="196.17" y2="108.68"/>
					<line class="st3" x1="143.33" y1="116.29" x2="196.17" y2="116.29"/>
					<line class="st3" x1="143.33" y1="123.9" x2="196.17" y2="123.9"/>
					<line class="st3" x1="143.33" y1="131.51" x2="196.17" y2="131.51"/>
				</g>
				<g>
					<path class="st3" d="M205.49,131.51c0,0,4.16-55.41,65.54-42.05"/>
					<polyline class="st3" points="267.94,85.08 271.03,89.47 266.79,93.02 					"/>
				</g>
				<g>
					<path class="st3" d="M208.18,193.23c0,0-29.57,3.51-28.86-30.14"/>
					<polyline class="st3" points="177.34,165.17 179.33,163.09 181.63,164.95 					"/>
				</g>
			</g>
			<g>
				<g>
					<path class="st4" d="M257.89,147.46L257.89,147.46c-7.71,1.79-15.42-3.02-17.21-10.73l-3.8-16.41
						c-1.79-7.71,3.02-15.42,10.73-17.21l0,0c7.71-1.79,15.42,3.02,17.21,10.73l3.8,16.41
						C270.41,137.97,265.61,145.67,257.89,147.46z"/>
					<path class="st5" d="M268.62,130.26l-2.87-12.39c-0.48,0.19-0.96,0.38-1.44,0.58c-2.68,1.09-4.23,3.91-3.71,6.76
						c1.17,6.36,2.08,12.82,3.32,19.21C267.88,141.05,269.87,135.66,268.62,130.26z"/>
				</g>
				<path class="st4" d="M223.71,222.2c-2.03,5.21-0.13,11.13,4.56,14.18l3.48,2.26l2.83-24.33l-2.84-4.56
					c-3.44,2.88-6.98,5.56-10.51,8.25L223.71,222.2z"/>
				<path class="st6" d="M239.81,168.69l-10.64-19.7l-19.46,31.55c-3.36,5.44-3.42,12.3-0.15,17.8L221.22,218
					c3.53-2.69,7.08-5.37,10.51-8.25l-11.51-18.47L239.81,168.69z"/>
				<g>
					<path class="st6" d="M306.73,141.46l-41.16-1.23l9.55,22.54l37.32-4.15c7.52-0.62,12.54-8.02,10.34-15.23l-8.05-26.45
						c-4.19,0.68-7.67,1.38-11.9,2.1L306.73,141.46z"/>
					<path class="st5" d="M304.66,100.69L304.66,100.69c-0.29,0.06-0.57,0.15-0.84,0.26l-1.75-5.79c-0.36-1.18-1.62-1.84-2.79-1.45
						c-1.07,0.35-1.7,1.46-1.46,2.56l2.31,10.43l-0.29,0.13c-0.97,0.45-1.48,1.53-1.22,2.57c0.28,1.1,1.34,1.81,2.46,1.66l0.32-0.04
						l1.4,8.02c4.24-0.73,7.71-1.42,11.9-2.1l-4.2-13.05C309.62,101.53,307.13,100.18,304.66,100.69z"/>
				</g>
				<path class="st7" d="M277.04,238.13c0.77-11.03,1.35-19.19,1.59-21.99c0.71-8.47,2.13-32.13,3.01-55.51
					c0.43-11.36-8.66-20.8-20.03-20.8H246c-11.33,0-20.4,9.37-20.03,20.69c0.81,24.63,1.56,55.5-1.14,77.46
					C242.2,238.5,259.75,239.69,277.04,238.13z"/>
				<path class="st6" d="M267.49,238.13c0.54-11.03,0.95-19.19,1.11-21.99c0.5-8.47,1.49-32.13,2.11-55.51
					c0.3-11.36-6.07-20.8-14.03-20.8h-10.94c-7.94,0-14.3,9.37-14.04,20.69c0.56,24.63,1.09,55.5-0.8,77.46
					C243.08,238.5,255.37,239.69,267.49,238.13z"/>
				<path class="st8" d="M271.14,355.47c-1.23-0.9-1.91-2.36-1.8-3.88c0.89-13.33,5.24-78.15,7.7-113.46
					c-17.29,1.56-34.84,0.37-52.21-0.14c-0.29,2.35-0.62,4.6-0.99,6.73c-6.68,38.16-22.15,101.06-25.84,115.87
					c-0.4,1.63,0.83,3.2,2.5,3.2h25.48c1.23,0,1.82-1.52,0.91-2.35l-5.52-5.02c-1.31-1.19-1.79-3.04-1.22-4.72
					c2.41-7.12,8.99-26.92,14.18-46.34c6.48-24.24,16.21-49.9,16.21-49.9l0.26,105.76c0,1.42,1.16,2.57,2.58,2.57h24.92
					c1.3,0,1.85-1.66,0.8-2.44L271.14,355.47z"/>
			</g>
			<g>
				<path class="st2" d="M360.29,249.37H117.17c-3.14,0-5.68-2.55-5.68-5.68l0,0c0-3.14,2.55-5.68,5.68-5.68h243.12
					c3.14,0,5.68,2.55,5.68,5.68l0,0C365.97,246.83,363.43,249.37,360.29,249.37z"/>
				<g>
					<path class="st4" d="M129.53,195.41L129.53,195.41c-7.95,1.84-15.89-3.11-17.74-11.06l-3.92-16.92
						c-1.84-7.95,3.11-15.89,11.06-17.74h0c7.95-1.84,15.89,3.11,17.74,11.06l3.92,16.92C142.44,185.62,137.49,193.56,129.53,195.41
						z"/>
					<path class="st5" d="M140.6,177.67l-2.96-12.77c-0.49,0.19-0.99,0.39-1.48,0.59c-2.77,1.13-4.36,4.03-3.82,6.97
						c1.2,6.56,2.15,13.21,3.42,19.8C139.83,188.8,141.89,183.24,140.6,177.67z"/>
					<path class="st8" d="M195.22,295.36l-10.99,60.57c-0.37,2.05,0.25,4.16,1.65,5.61l7.15,7.4c1.12,1.16,0.35,3.17-1.21,3.17
						h-23.33c-2.3,0-4.08-2.14-3.81-4.57l8.19-73.35L195.22,295.36z"/>
					<path class="st8" d="M164.71,295.36l-10.99,60.57c-0.37,2.05,0.25,4.16,1.65,5.61l7.15,7.4c1.12,1.16,0.35,3.17-1.21,3.17
						h-23.33c-2.3,0-4.08-2.14-3.81-4.57l8.19-73.35L164.71,295.36z"/>
					<path class="st9" d="M147.09,197.05c-0.95-5.35-5.6-9.25-11.04-9.25h-26.98c-14.41,0-25.31,13.05-22.73,27.23l8.38,46.19
						c21.29-0.45,42.27-0.49,63.7-0.49L147.09,197.05z"/>
					<path class="st8" d="M184.89,272.28l-16.88-2.56c-5.1-1.11-8.58-3.32-9.39-7.87l-0.2-1.11c-21.43,0-42.41,0.04-63.7,0.49
						l1.54,8.49l2.97,16.03h96.93C196.17,279.12,191.42,273.45,184.89,272.28z"/>
					<g>
						<path class="st10" d="M142.67,335.46L142.67,335.46c-2.23,0-4.04-1.81-4.04-4.04v-25c0-2.23,1.81-4.04,4.04-4.04h0
							c2.23,0,4.04,1.81,4.04,4.04v25C146.72,333.65,144.91,335.46,142.67,335.46z"/>
						<path class="st11" d="M140.98,321.39L140.98,321.39c-1.3,0-2.35-1.05-2.35-2.35v-14.32c0-1.3,1.05-2.35,2.35-2.35l0,0
							c1.3,0,2.35,1.05,2.35,2.35v14.32C143.33,320.34,142.28,321.39,140.98,321.39z"/>
						<path class="st12" d="M168.41,307.03h-51.47c-3.5,0-6.33-2.84-6.33-6.33v-3.58h64.13v3.58
							C174.74,304.2,171.91,307.03,168.41,307.03z"/>
						<path class="st13" d="M131.35,195.79l-52.64,0v0c-0.91-0.01-1.86,0.19-2.78,0.67c-2.23,1.18-3.34,3.76-2.86,6.23l17.38,89.82
							c0,0.02,0.01,0.03,0.01,0.05c0.52,2.66,2.89,4.56,5.6,4.56h0.11h56.12L131.35,195.79z"/>
						<path class="st14" d="M195.15,285.75h-41.66l-16.52-85.36c-0.6-3.08-3.58-5.1-6.66-4.5c-3.08,0.6-5.1,3.58-4.5,6.66
							l17.41,89.96c0.53,2.73,2.94,4.62,5.63,4.6c0.03,0,0.06,0,0.1,0h46.2c3.14,0,5.68-2.55,5.68-5.68
							C200.83,288.3,198.29,285.75,195.15,285.75z"/>
						<g>
							<g>
								<path class="st12" d="M167.69,363.78h-50.03c-1.89,0-3.43-1.53-3.43-3.43l0,0c0-1.89,1.53-3.43,3.43-3.43h50.03
									c1.89,0,3.43,1.53,3.43,3.43l0,0C171.11,362.24,169.58,363.78,167.69,363.78z"/>
								<g>
									<path class="st12" d="M119.04,367.3c0,2.66-2.16,4.82-4.82,4.82c-2.66,0-4.82-2.16-4.82-4.82c0-2.66,2.16-4.82,4.82-4.82
										C116.88,362.48,119.04,364.64,119.04,367.3z"/>
									<path class="st12" d="M175.94,367.3c0,2.66-2.16,4.82-4.82,4.82c-2.66,0-4.82-2.16-4.82-4.82c0-2.66,2.16-4.82,4.82-4.82
										C173.79,362.48,175.94,364.64,175.94,367.3z"/>
								</g>
								<g>
									<path class="st12" d="M157.28,367.3c0,2.66-2.16,4.82-4.82,4.82c-2.66,0-4.82-2.16-4.82-4.82c0-2.66,2.16-4.82,4.82-4.82
										C155.13,362.48,157.28,364.64,157.28,367.3z"/>
									<path class="st12" d="M137.7,367.3c0,2.66-2.16,4.82-4.82,4.82s-4.82-2.16-4.82-4.82c0-2.66,2.16-4.82,4.82-4.82
										S137.7,364.64,137.7,367.3z"/>
								</g>
								<path class="st12" d="M145.47,325.58h-5.59c-2.19,0-3.96,1.77-3.96,3.96v31.33h13.51v-31.33
									C149.43,327.35,147.66,325.58,145.47,325.58z"/>
							</g>
						</g>
					</g>
					<path class="st9" d="M175.98,222.92l-31.07-30.76l1.81,28.14L163.27,238h27.14l12.49-29.15c-4.05-2.49-8.43-4.42-12.56-6.91
						L175.98,222.92z"/>
					<path class="st15" d="M128.39,166.58l1.51,5.93c1.37,6.67-3.34,13.05-10.12,13.7l0,0c-5.8,0.55-11.1-3.34-12.29-9.05
						l-3.44-15.13c-0.9-4.31,1.72-8.58,5.97-9.72l0,0l0,0c0-2.88,2.04-5.34,4.87-5.88l12.34-2.35c5.71-1.09,11.21,2.66,12.29,8.37
						l0,0c0.86,4.58-1.4,9.19-5.55,11.3L128.39,166.58z"/>
					<path class="st16" d="M125.82,175.34l1.01-5.15c0.04-0.21-0.19-0.38-0.38-0.28l-6.06,3.3c-0.22,0.12-0.46-0.11-0.36-0.33
						l6.32-14.02c0.11-0.24-0.16-0.46-0.38-0.32l-9.4,6.11c-0.21,0.14-0.47-0.07-0.38-0.3l2.75-7.58c0.09-0.23-0.18-0.44-0.39-0.3
						l-7.93,5.33c-0.21,0.14-0.48-0.08-0.38-0.32l3.58-8.14c0.1-0.22-0.14-0.44-0.35-0.33l-4.35,2.23
						c-0.22,0.11-0.46-0.12-0.35-0.34l1.26-2.58c-4.25,1.15-6.87,5.41-5.97,9.72l3.44,15.13c1.19,5.71,6.49,9.6,12.29,9.05l0,0
						c6.51-0.62,11.1-6.54,10.24-12.92l-3.81,2.32C126.01,175.72,125.77,175.56,125.82,175.34z"/>
					<path class="st5" d="M205.37,187.72L205.37,187.72c-0.29-0.16-0.59-0.29-0.9-0.4l2.77-6.2c0.57-1.27-0.02-2.75-1.3-3.28
						c-1.17-0.49-2.52-0.01-3.12,1.11l-5.69,10.56l-0.34-0.1c-1.16-0.33-2.38,0.21-2.92,1.29c-0.57,1.14-0.19,2.52,0.87,3.21
						l0.3,0.2l-4.7,7.84c4.13,2.49,8.5,4.41,12.56,6.91l5.1-14.12C208.96,192.06,207.85,189.09,205.37,187.72z"/>
				</g>
				<g>
					<g>
						<path class="st4" d="M356.93,193.55L356.93,193.55c7.05,1.63,14.08-2.76,15.72-9.8l3.47-14.99c1.63-7.05-2.76-14.08-9.8-15.72
							h0c-7.05-1.63-14.08,2.76-15.72,9.8l-3.47,14.99C345.49,184.88,349.88,191.92,356.93,193.55z"/>
						<g>
							<path class="st8" d="M363.43,150.72c-0.61,0.03-1.22,0.1-1.81,0.19c-4.88,0.79-9.01,3.69-11.46,7.71
								c-1.66,2.71-0.64,6.36,2.25,7.68c0.02,0.01,0.04,0.02,0.05,0.02l4.59,2.05l-1.38,6.72c-0.82,5.31,3.09,10.16,8.41,10.54
								c0.03,0,0.06,0,0.1,0c1.21-0.02,2.38-0.18,3.51-0.45c7.6-1.81,13.48-10.72,13.07-18.8
								C380.3,157.27,372.54,150.26,363.43,150.72z"/>
							<circle class="st8" cx="384.79" cy="161.39" r="9.61"/>
						</g>
						<path class="st5" d="M347.13,177.83l2.62-11.32c0.44,0.17,0.87,0.35,1.31,0.53c2.45,1,3.86,3.57,3.39,6.18
							c-1.07,5.81-1.9,11.71-3.03,17.55C347.8,187.7,345.98,182.77,347.13,177.83z"/>
					</g>
					<path class="st5" d="M289.48,295.36l10.99,60.57c0.37,2.05-0.25,4.16-1.65,5.61l-0.6,0.62c7.06-0.15,14.13-0.11,21.19-0.02
						l-7.59-67.94L289.48,295.36z"/>
					<path class="st8" d="M298.23,362.16l-6.55,6.79c-1.12,1.16-0.35,3.17,1.21,3.17h23.33c2.3,0,4.08-2.14,3.81-4.57l-0.6-5.41
						C312.35,362.05,305.29,362,298.23,362.16z"/>
					<path class="st5" d="M349.95,362.32l-7.61-68.13l-22.34,1.17l10.99,60.57c0.37,2.05-0.25,4.16-1.65,5.61l-0.7,0.72
						C335.74,362.36,342.84,362.43,349.95,362.32z"/>
					<path class="st8" d="M349.95,362.32c-7.1,0.11-14.21,0.04-21.31-0.06l-6.45,6.68c-1.12,1.16-0.35,3.17,1.21,3.17h23.33
						c2.3,0,4.08-2.14,3.81-4.57L349.95,362.32z"/>
					<polygon class="st17" points="294.33,322.06 345.45,322.06 342.34,294.19 289.48,295.36 					"/>
					<path class="st17" d="M369.27,187.81h-20.62c-5.43,0-10.08,3.9-11.04,9.25l-0.18,11.92c-4.35,5.84-9.58,13.89-9.72,19.1
						c-0.15,5.55,4.95,7.08,8.85,7.45c-1.02,9.3-3.25,18.45-6.66,27.19l0,0c-2.08,4.7-8.1,5.9-13.21,7.01l-16.88,2.56
						c-6.53,1.17-11.28,6.85-11.28,13.48h96.93l2.97-16.03l1.54-8.49l2.03-46.19C394.58,200.86,383.69,187.81,369.27,187.81z"/>
					<path class="st18" d="M293.97,295.29l-4.49,0.07l4.85,26.7h3.97C296.74,313.26,293.97,295.29,293.97,295.29z"/>
					<path class="st18" d="M316.98,269.65c-0.1,0.02-0.19,0.05-0.29,0.07l-16.88,2.56c-6.53,1.17-11.28,6.85-11.28,13.48h5.48
						c0.97-3.08,2.57-5.91,5.06-8.4C303.06,273.87,311.03,272.65,316.98,269.65z"/>
					<g>
						<path class="st10" d="M342.03,335.46L342.03,335.46c2.23,0,4.04-1.81,4.04-4.04v-25c0-2.23-1.81-4.04-4.04-4.04l0,0
							c-2.23,0-4.04,1.81-4.04,4.04v25C337.98,333.65,339.8,335.46,342.03,335.46z"/>
						<path class="st11" d="M343.72,321.39L343.72,321.39c1.3,0,2.35-1.05,2.35-2.35v-14.32c0-1.3-1.05-2.35-2.35-2.35l0,0
							c-1.3,0-2.35,1.05-2.35,2.35v14.32C341.37,320.34,342.43,321.39,343.72,321.39z"/>
						<path class="st12" d="M316.3,307.03h51.47c3.5,0,6.33-2.84,6.33-6.33v-3.58h-64.13v3.58
							C309.96,304.2,312.8,307.03,316.3,307.03z"/>
						<path class="st13" d="M353.35,195.79l52.64,0v0c0.91-0.01,1.86,0.19,2.78,0.67c2.23,1.18,3.34,3.76,2.86,6.23l-17.38,89.82
							c0,0.02-0.01,0.03-0.01,0.05c-0.52,2.66-2.89,4.56-5.6,4.56h-0.11h-56.12L353.35,195.79z"/>
						<path class="st14" d="M289.56,285.75h41.66l16.52-85.36c0.6-3.08,3.58-5.1,6.66-4.5c3.08,0.6,5.1,3.58,4.5,6.66l-17.41,89.96
							c-0.53,2.73-2.94,4.62-5.63,4.6c-0.03,0-0.06,0-0.1,0h-46.2c-3.14,0-5.68-2.55-5.68-5.68
							C283.87,288.3,286.42,285.75,289.56,285.75z"/>
						<g>
							<g>
								<path class="st12" d="M317.02,363.78h50.03c1.89,0,3.43-1.53,3.43-3.43l0,0c0-1.89-1.53-3.43-3.43-3.43h-50.03
									c-1.89,0-3.43,1.53-3.43,3.43l0,0C313.59,362.24,315.13,363.78,317.02,363.78z"/>
								<g>
									<path class="st12" d="M365.67,367.3c0,2.66,2.16,4.82,4.82,4.82c2.66,0,4.82-2.16,4.82-4.82c0-2.66-2.16-4.82-4.82-4.82
										C367.82,362.48,365.67,364.64,365.67,367.3z"/>
									<path class="st12" d="M308.76,367.3c0,2.66,2.16,4.82,4.82,4.82s4.82-2.16,4.82-4.82c0-2.66-2.16-4.82-4.82-4.82
										S308.76,364.64,308.76,367.3z"/>
								</g>
								<g>
									<path class="st12" d="M327.42,367.3c0,2.66,2.16,4.82,4.82,4.82c2.66,0,4.82-2.16,4.82-4.82c0-2.66-2.16-4.82-4.82-4.82
										C329.58,362.48,327.42,364.64,327.42,367.3z"/>
									<path class="st12" d="M347.01,367.3c0,2.66,2.16,4.82,4.82,4.82s4.82-2.16,4.82-4.82c0-2.66-2.16-4.82-4.82-4.82
										S347.01,364.64,347.01,367.3z"/>
								</g>
								<path class="st12" d="M339.23,325.58h5.59c2.19,0,3.96,1.77,3.96,3.96v31.33h-13.51v-31.33
									C335.28,327.35,337.05,325.58,339.23,325.58z"/>
							</g>
						</g>
					</g>
					<path class="st5" d="M339.8,192.16L339.8,192.16l-24.74,35.12c-0.46,0.62-1.31,1.16-2.2,1.59c-1.47,0.71-3.06,1.12-4.68,1.31
						l-22.03,1.34c0,0-7.19-3.57-9.23-3.57c-2.04,0-12.39,4.96-13.26,5.83c-0.87,0.87,0,4.23,0,4.23h22.08h35.7l7.68-6.88
						C340.01,221.35,344.19,206.12,339.8,192.16z"/>
				</g>
			</g>
			<path class="st0" d="M218.05,154.04h-35c-1.08,0-1.96-0.88-1.96-1.96v-8.59c0-1.08,0.88-1.96,1.96-1.96h35
				c1.08,0,1.96,0.88,1.96,1.96v8.59C220,153.17,219.13,154.04,218.05,154.04z"/>
			<path class="st0" d="M195.38,162.3h-35c-1.08,0-1.96-0.88-1.96-1.96v-8.59c0-1.08,0.88-1.96,1.96-1.96h35
				c1.08,0,1.96,0.88,1.96,1.96v8.59C197.33,161.42,196.46,162.3,195.38,162.3z"/>
			<path class="st19" d="M218.05,150.7h-35c-1.08,0-1.96-0.88-1.96-1.96v-8.59c0-1.08,0.88-1.96,1.96-1.96h35
				c1.08,0,1.96,0.88,1.96,1.96v8.59C220,149.83,219.13,150.7,218.05,150.7z"/>
			<path class="st0" d="M348.57,96.28h-35c-1.08,0-1.96-0.88-1.96-1.96v-8.59c0-1.08,0.88-1.96,1.96-1.96h35
				c1.08,0,1.96,0.88,1.96,1.96v8.59C350.53,95.4,349.65,96.28,348.57,96.28z"/>
			<path class="st0" d="M348.57,112.62h-14.21c-1.08,0-1.96-0.88-1.96-1.96v-8.59c0-1.08,0.88-1.96,1.96-1.96h14.21
				c1.08,0,1.96,0.88,1.96,1.96v8.59C350.53,111.74,349.65,112.62,348.57,112.62z"/>
			<path class="st14" d="M348.57,92.1h-35c-1.08,0-1.96-0.88-1.96-1.96v-8.59c0-1.08,0.88-1.96,1.96-1.96h35
				c1.08,0,1.96,0.88,1.96,1.96v8.59C350.53,91.22,349.65,92.1,348.57,92.1z"/>
			<path class="st19" d="M348.57,108.44h-14.21c-1.08,0-1.96-0.88-1.96-1.96v-8.59c0-1.08,0.88-1.96,1.96-1.96h14.21
				c1.08,0,1.96,0.88,1.96,1.96v8.59C350.53,107.57,349.65,108.44,348.57,108.44z"/>
			<path class="st17" d="M195.38,158.95h-35c-1.08,0-1.96-0.88-1.96-1.96v-8.59c0-1.08,0.88-1.96,1.96-1.96h35
				c1.08,0,1.96,0.88,1.96,1.96V157C197.33,158.08,196.46,158.95,195.38,158.95z"/>
		</g>
	</g>
</g>
<g id="DESIGNED_BY_FREEPIK">
</g>
</svg>
