<?xml version="1.0" encoding="utf-8"?>
<!-- Generator: Adobe Illustrator 23.0.1, SVG Export Plug-In . SVG Version: 6.00 Build 0)  -->
<svg version="1.1" id="OBJECTS" xmlns="http://www.w3.org/2000/svg" xmlns:xlink="http://www.w3.org/1999/xlink" x="0px" y="0px"
	 viewBox="0 0 200 160.89" style="enable-background:new 0 0 200 160.89;" xml:space="preserve">
<style type="text/css">
	.st0{fill:#C8DBFB;}
	.st1{fill:none;stroke:#C8DBFB;stroke-linecap:round;stroke-linejoin:round;}
	.st2{fill:none;stroke:#C8DBFB;stroke-linecap:round;stroke-linejoin:round;stroke-dasharray:4.0403,4.0403;}
	.st3{fill:#5193F4;}
	.st4{fill:none;stroke:#0B43A4;stroke-linecap:round;stroke-linejoin:round;stroke-miterlimit:10;}
	.st5{fill:#00AD9F;}
	.st6{fill:none;stroke:#00AD9F;stroke-linecap:round;stroke-linejoin:round;stroke-miterlimit:10;}
	.st7{fill:#0056EC;}
	.st8{fill:#52D2BC;}
	.st9{opacity:0.2;fill:#5275A0;}
	.st10{fill:#7EE8D4;}
	.st11{fill:#4A49CA;}
	.st12{fill:none;stroke:#0B43A4;stroke-linecap:round;stroke-linejoin:round;stroke-miterlimit:10;stroke-dasharray:4;}
	.st13{fill:none;stroke:#C8DBFB;stroke-linecap:round;stroke-linejoin:round;stroke-miterlimit:10;stroke-dasharray:4;}
	.st14{fill:#0B43A4;}
	.st15{fill:#FFFFFF;}
	.st16{fill:#0C2340;}
	.st17{fill:#EF832B;}
	.st18{fill:#FFB9A3;}
	.st19{fill:#047F76;}
	.st20{fill:#009790;}
	.st21{fill:#D8742A;}
</style>
<g>
	<ellipse class="st0" cx="70.46" cy="155.39" rx="17.38" ry="1.62"/>
	<ellipse class="st0" cx="159.76" cy="155.39" rx="17.38" ry="1.62"/>
	<g>
		<g>
			<g>
				<path class="st1" d="M196.48,41.06c-0.11-0.69-0.25-1.34-0.4-1.96"/>
				<path class="st2" d="M194.63,35.34c-4.01-7.25-12.71-6.45-20.66-6.43c-9.62,0.02-158.54,0.33-158.54,0.33
					c-14.97,0.03-13.52,21.64-1.8,21.61c6.74-0.01,9.3,12.64-2.35,12.66c-5.91,0.01-6.98,6.35-4.33,9.38"/>
				<path class="st1" d="M8.58,74.08c0.57,0.25,1.23,0.39,1.96,0.39"/>
			</g>
		</g>
		<path class="st3" d="M12.37,74.05c0.2,1.17-0.59,2.29-1.76,2.49c-1.17,0.2-2.29-0.59-2.49-1.76c-0.2-1.17,0.59-2.29,1.76-2.49
			C11.06,72.09,12.17,72.88,12.37,74.05z"/>
		<path class="st3" d="M198.6,42.03c-0.21,1.17-1.33,1.95-2.5,1.73c-1.17-0.21-1.95-1.33-1.73-2.5c0.21-1.17,1.33-1.95,2.5-1.73
			C198.04,39.74,198.82,40.86,198.6,42.03z"/>
	</g>
	<g>
		<g>
			<path class="st3" d="M34.32,58.32c-0.31,1.75-0.76,3.46-1.32,5.15c-1.19,3.64-2.84,7.14-4.5,10.6c-0.87,1.81-4.39,5.99-6.28,6.79
				c0.22-4.72,0.24-10.23-0.31-14.99c-0.53-4.59,1.12-8.06-0.67-12.32c-0.23-0.54-0.47-1.09-0.71-1.63
				c-0.89-2.02-1.78-4.06-2.06-6.24c-0.36-2.77,0.5-5.92,2.89-7.36c1.72-1.03,3.97-0.98,5.81-0.17s3.31,2.3,4.43,3.97
				C34.74,46.78,35.31,52.8,34.32,58.32z"/>
			<path class="st4" d="M25.96,43.04c3.52,4.97,3.83,10.77,4.13,16.85c0.31,6.09-1.16,12.25-4.16,17.55"/>
		</g>
		<g>
			<path class="st5" d="M25.81,134.78c-2.47-2.18-4.97-4.4-6.79-7.14c-1.59-2.39-2.61-5.1-4-7.61c-0.9-1.63-1.96-3.19-2.48-4.97
				c-0.52-1.78-0.39-3.89,0.87-5.25c1.32-1.42,3.59-1.63,5.39-0.9c1.79,0.73,3.16,2.24,4.21,3.87c1.39,2.16,2.32,4.62,2.71,7.16
				c0.35,2.3,0.26,4.66,0.62,6.96c0.33,2.15,1.05,4.21,1.96,6.17c0.82,1.78,2.91,4.96,3.45,6.79
				C30.28,140.59,26.86,135.71,25.81,134.78z"/>
			<path class="st6" d="M17.18,112.16c2.35,1.03,3.28,3.83,3.77,6.34c0.56,2.86,0.43,5.96,1.75,8.56c2.47,4.9,5.69,10.49,8.08,12.16
				"/>
		</g>
		<g>
			<path class="st7" d="M13.66,128.07c-2.05-0.81-4.78-1.14-6.1,0.63c-1.1,1.48-0.53,3.58,0.23,5.26c0.64,1.42,1.46,2.86,2.81,3.63
				c0.92,0.53,2.01,0.68,3.06,0.81c2.94,0.35,5.91,0.52,8.88,0.51c3.44-0.01,7.6,1.39,10.45,3.54
				C29.34,135.66,20.56,130.79,13.66,128.07z"/>
			<path class="st4" d="M10.07,132.48c2.61,0.11,5.24,0.29,7.74,1.03c2.56,0.76,12.4,5.27,13.94,7.2"/>
		</g>
		<g>
			<path class="st8" d="M36.01,114.15c-2.67-4.17-7.23-7.09-12.14-7.75c-3.63-0.49-7.36,0.19-10.93-0.56
				c-3.76-0.79-7.15-3.21-9.11-6.51S1.35,91.89,2.45,88.2c0.84-2.8,2.76-5.45,5.54-6.35c1.51-0.49,3.17-0.42,4.72-0.05
				c1.43,0.34,2.76,0.94,3.98,1.72c2.8,1.77,5.06,4.5,6.76,7.39c1.54,2.63,5.35,6.73,7.94,9.39c1.52,1.56,2.62,2.62,2.62,2.62
				C35.79,105.14,34.96,111.52,36.01,114.15z"/>
			<path class="st6" d="M7.19,89.95c8.71,3.93,18.21,9.09,24.39,16.38"/>
		</g>
		<g>
			<path class="st9" d="M32.41,105.34c0,0-12.98-10.52-15.72-21.82c2.8,1.77,5.06,4.5,6.76,7.39c1.54,2.63,5.35,6.73,7.94,9.39
				C31.69,101.73,32.03,103.39,32.41,105.34z"/>
			<path class="st9" d="M33.01,63.47c-1.19,3.64-2.84,7.14-4.5,10.6c-0.87,1.81-4.39,5.99-6.28,6.79
				c0.22-4.72,0.24-10.23-0.31-14.99c-0.53-4.59,1.12-8.06-0.67-12.32c-0.23-0.54-0.47-1.09-0.71-1.63
				c0.17,0.05,0.33,0.11,0.49,0.18c2.96,1.27,4.33,4.4,4.58,7.44c0.21,2.51-0.24,5.02-0.58,7.52c-0.16,1.15-0.28,2.33-0.04,3.46
				c0,0.01,0.01,0.02,0.01,0.04c0.31,1.34,2.28,1.27,2.53-0.09l0.79-4.18c0.23-1.25,0.49-2.56,1.52-3.43
				c0.4-0.35,0.93-0.56,1.46-0.54C32.12,62.33,32.66,62.82,33.01,63.47z"/>
			<path class="st10" d="M32.41,102.71C30.36,92,29.28,90.35,30.18,87.66c1.15-3.42,0.5-6.86,1.59-10.3
				c1.08-3.44,1.82-7.14,0.95-10.64c-0.28-1.11-0.84-2.31-2.17-2.36c-0.53-0.02-1.05,0.2-1.46,0.54c-1.02,0.87-1.28,2.18-1.52,3.43
				l-0.78,4.18c-0.25,1.36-2.22,1.44-2.53,0.09c0-0.01-0.01-0.02-0.01-0.03c-0.25-1.13-0.12-2.31,0.03-3.46
				c0.34-2.5,0.79-5.01,0.58-7.52c-0.25-3.04-1.62-6.17-4.58-7.44c-1.05-0.45-2.23-0.55-3.34-0.27c-3.09,0.79-3.89,3.81-3.44,6.39
				c0.32,1.81,1.17,3.48,1.94,5.16c1.88,4.09,0.5,7.84,0.76,12.33C16.93,90.17,32.41,102.71,32.41,102.71z"/>
			<path class="st6" d="M18.62,57.13c1.53,7.62,3.07,15.29,6.03,22.48c0.87,2.11,1.29,4.88,6.32,10.61"/>
		</g>
		<g>
			<path class="st3" d="M78.1,59.08c-1.58-1.8-3.04-3.64-4.57-5.41c-0.99-1.15-2.02-2.27-3.13-3.33c-0.55-0.53-1.12-1.04-1.73-1.54
				c-3.56-2.94-7.54-5.38-11.79-7.2c-2.56-1.1-5.27-2-7.45-3.75c-2.18-1.74-3.74-4.61-3.02-7.31c0.53-1.94,2.18-3.45,4.07-4.15
				c1.89-0.69,3.98-0.63,5.95-0.21c5.49,1.18,10.07,5.13,13.19,9.79c0.05,0.08,0.11,0.17,0.17,0.25c2.28,3.49,3.88,7.36,5.27,11.31
				c0.45,1.27,0.87,2.55,1.29,3.82C76.97,53.26,78.91,57.2,78.1,59.08z"/>
			<path class="st4" d="M53,30.77c5.99,1.14,10.22,5.11,14.66,9.28s7.66,9.63,9.17,15.53"/>
		</g>
		<g>
			<path class="st9" d="M73.53,53.67c-0.05,0.62-0.03,1.24,0.09,1.87c-1.5-0.34-2.54-2.67-3.22-5.2c-0.67-2.46-1-5.12-1.11-6.35
				c-0.2-2.59-0.04-5.22,0.5-7.77c2.28,3.49,3.88,7.36,5.27,11.31c-0.48,1.42-0.89,2.85-1.22,4.3
				C73.69,52.46,73.58,53.06,73.53,53.67z"/>
			<path class="st8" d="M83.92,32.06c-0.51,2.24-1.86,4.18-3.06,6.15c-0.63,1.04-1.22,2.1-1.77,3.18c-1.76,3.45-3.1,7.12-3.98,10.89
				c-0.29,1.24-0.45,2.45-0.22,3.71c-2.95-0.67-4.13-9.06-4.33-11.55c-0.35-4.49,0.41-9.09,2.26-13.2c0.81-1.81,1.85-3.58,3.45-4.73
				c1.6-1.16,3.87-1.56,5.56-0.55c1.02,0.61,1.68,1.61,2,2.76C84.14,29.79,84.16,30.98,83.92,32.06z"/>
			<path class="st6" d="M73.76,53.52c-1.83-4.61-0.72-14.36,2.22-20.49c0.89-1.85,2.15-3.58,3.92-4.61"/>
		</g>
		<g>
			<path class="st9" d="M83.92,32.06c-0.51,2.24-1.86,4.18-3.06,6.15c-0.63,1.04-1.22,2.1-1.77,3.18c-0.81-1.36-1.36-2.86-1.51-4.42
				c-0.25-2.61,0.75-5.41,2.88-6.95c0.99-0.72,2.16-1.12,3.38-1.31C84.14,29.79,84.16,30.98,83.92,32.06z"/>
			<path class="st5" d="M100.94,51.58c-0.14,0.86-0.4,1.69-0.76,2.48c-1.31,2.83-4.05,5.26-8.17,7.24c0,0-0.23-4.48-0.28-5.68
				c-0.2-5.13-5.77-7.98-9.3-11.72c-1.8-1.91-3.16-4.32-3.41-6.93c-0.25-2.61,0.75-5.41,2.88-6.95c1.78-1.28,4.11-1.57,6.3-1.4
				c3.53,0.28,7.1,1.76,9.3,4.52c0.1,0.11,0.18,0.21,0.26,0.32c1.35,1.84,2.04,4.08,2.55,6.31
				C101.18,43.65,101.57,47.67,100.94,51.58z"/>
			<path class="st6" d="M83.4,32.78c3.86,2,7.72,4.41,9.97,8.12c3.13,5.18,2.45,11.93,0.03,17.49"/>
		</g>
		<g>
			<path class="st8" d="M165.47,84.71c2.46-4.05,1.2-9.25,2.06-13.91c0.66-3.58,2.65-6.9,5.5-9.17c1.79-1.42,4.3-2.44,6.32-1.37
				c0.44,0.23,0.96,0.56,1.38,0.3c0.25-0.15,0.35-0.47,0.41-0.76c0.51-2.52-0.7-5.26,0.29-7.63c0.53-1.28,1.63-2.23,2.8-2.97
				c2.25-1.43,4.88-2.26,7.54-2.37c0.71-0.03,1.44,0,2.08,0.32c1.14,0.57,1.67,2,1.51,3.27c-0.15,1.27-0.85,2.41-1.63,3.42
				c-2.58,3.38-6.37,6.29-6.86,10.51c-0.06,0.53-0.06,1.1,0.18,1.57c0.24,0.46,0.68,0.79,0.93,1.25c0.8,1.46-0.74,3.12-2.24,3.84
				c-1.37,0.66-2.86,1.07-4.37,1.21c-1.04,0.1-2.22,0.12-2.93,0.89c-1.31,1.42,0.19,3.69-0.08,5.6c-0.17,1.19-1.04,2.16-1.9,2.99
				c-1.61,1.55-3.38,2.94-5.26,4.15c-1.53,0.98-3.14,1.84-4.5,3.05c-1.35,1.21-2.45,2.84-2.54,4.65"/>
			<path class="st6" d="M168.71,80.77c0.4-1.96,1.31-3.78,2.22-5.56c1.41-2.79,2.85-5.63,4.98-7.92c1.62-1.74,3.59-3.12,5.24-4.83
				c1.17-1.22,2.17-2.61,2.96-4.11c0.43-0.81,0.79-1.67,1.37-2.38c0.68-0.85,1.62-1.46,2.43-2.18c1.1-0.98,1.98-2.2,2.57-3.55"/>
		</g>
		<g>
			<path class="st3" d="M200.78,87.52c-0.55,2.13-1.38,4.24-2.79,5.93c-0.98,1.16-2.19,2.09-3.52,2.84
				c-0.68,0.39-1.4,0.73-2.13,1.04c-2.82,1.18-5.84,1.85-8.89,1.97c-4.44,0.17-9.01-0.81-13.28,0.45c-1.96,0.58-3.76,1.64-5.24,3.04
				c-0.93,0.87-1.72,1.87-2.35,2.97l0.58-3.69c1.07-3.97,2.17-8.01,4.37-11.48c1.42-2.25,3.26-4.21,5.21-6.02
				c3.13-2.89,6.59-5.43,10.42-7.29c3.09-1.5,6.53-2.56,9.95-2.14c3.41,0.41,6.77,2.57,7.83,5.84
				C201.64,83.09,201.34,85.38,200.78,87.52z"/>
			<path class="st4" d="M166.08,99.26c3.27-4.83,8.16-8.54,13.69-10.39c3.45-1.15,7.09-1.59,10.58-2.6
				c3.49-1.01,6.97-2.72,9.02-5.72"/>
		</g>
		<g>
			<path class="st8" d="M168.23,134.69c0.19-4.96,2.76-9.54,5.87-13.41c2.6-3.22,5.73-6.17,9.6-7.64c1.21-0.46,2.54-0.77,3.8-0.46
				c1.26,0.31,2.4,1.39,2.42,2.68c0.02,1.09-0.72,2.05-1.49,2.82c-2.54,2.55-5.83,4.18-8.92,6.05c-5.3,3.2-10.33,7.48-12.44,13.3"/>
			<path class="st6" d="M170.19,130.35c3.24-7.22,11.62-13.68,17.15-14.49"/>
		</g>
		<g>
			<path class="st5" d="M166.2,138.63c-0.04-0.83,2.67-3,3.28-3.56c3.38-3.07,7.41-5.33,11.66-6.66c1.72-0.54,3.55-0.93,5.27-0.52
				c1.72,0.42,3.3,1.82,3.47,3.68c0.16,1.8-1.04,3.56-2.58,4.43c-1.54,0.87-3.34,1-5.06,0.9c-2.66-0.15-5.26-0.81-7.93-0.79
				C171.64,136.14,167.89,136.41,166.2,138.63z"/>
			<path class="st6" d="M168.96,136.11c5.45-2.95,13.68-4.87,19.66-4.15"/>
		</g>
		<g>
			<path class="st9" d="M100.94,51.58c-0.14,0.86-0.4,1.69-0.76,2.48c-1.91-4.05-3.59-9.34-4-15.84c-0.11-1.76,0.38-3.57,1.32-5.08
				c0.1,0.11,0.18,0.21,0.26,0.32c1.35,1.84,2.04,4.08,2.55,6.31C101.18,43.65,101.57,47.67,100.94,51.58z"/>
			<path class="st10" d="M119.78,51.36c4.07-1.44,8.29-2.6,11.99-4.82c1.12-0.67,2.2-1.46,2.99-2.49c0.79-1.04,1.28-2.36,1.1-3.65
				c-0.18-1.31-1.02-2.57-0.74-3.87c0.19-0.85,0.83-1.52,1.32-2.25c1.17-1.72,1.51-3.98,0.92-5.97c-0.64-2.14-2.24-3.86-3.16-5.9
				c-0.75-1.67-1.01-3.54-0.76-5.35c-3.41,0.05-6.53,1.91-9.88,2.53c-2.57,0.48-5.24,0.22-7.78,0.8c-4.64,1.07-8.43,5.15-9.15,9.85
				c-2.15-0.37-4.47,0.41-5.96,2c-1.59,1.69-2.48,4.1-2.34,6.41c1.05,16.83,10.69,25.61,10.69,25.61S118.23,51.91,119.78,51.36z"/>
			<g>
				<path class="st6" d="M110.68,51.24c-0.42-4.15,1.03-8.26,2.69-12.08c1.62-3.73,3.49-7.39,6-10.59c2.51-3.2,5.7-5.95,9.46-7.49"
					/>
				<path class="st6" d="M114.3,23.63c-0.43,3.7-0.13,8.16,0.84,11.76"/>
				<path class="st6" d="M115.83,34.06c4.23-2.71,10.73-4.36,15.75-4.07"/>
				<path class="st6" d="M105.49,34.75c5.09,2.15,5.3,9.63,5.44,11.76"/>
				<path class="st6" d="M112.31,41.75c3.89-2.79,9.52-3.63,13.66-2.59"/>
				<path class="st6" d="M122.94,21.7c-1.17,1.44-1.46,3.16-1.35,4.35"/>
				<path class="st6" d="M122.7,25c1.8-0.92,4.2-1.13,6.76-0.49"/>
			</g>
		</g>
		<g>
			<path class="st11" d="M22.56,33.14c0.48-0.03,3.74-2.44,5-3.26c0.35-0.23,0.71-0.47,0.96-0.81s0.36-0.81,0.18-1.19
				c-0.22-0.47-0.59-0.94-1.53-0.94c-1.63,0-2.19,0.54-2.98,1.35C21.58,31,22.56,33.14,22.56,33.14z"/>
			<path class="st11" d="M37.19,42.89c1.42,0.64,2.94,1.27,4.48,1.08c0.6-0.08,1.25-0.35,1.45-0.92c0.17-0.49-0.06-1.05-0.45-1.39
				c-0.39-0.34-0.9-0.51-1.4-0.63c-1.89-0.46-4.55-0.21-6.42,0.33C34.86,41.35,36.34,42.51,37.19,42.89z"/>
			<path class="st11" d="M46.55,21.91c-0.63-0.4-1.33-0.94-1.33-1.68c0-0.75,0.78-1.32,1.54-1.33c0.75,0,1.45,0.41,2.01,0.9
				c2.39,2.1,2.09,4.49,2.09,4.49S47.25,22.35,46.55,21.91z"/>
			<path class="st11" d="M48.43,15.5c-0.56-0.24-1.13-0.53-1.46-1.04c-0.16-0.25-0.25-0.56-0.15-0.84c0.16-0.47,0.46-0.88,1.63-0.67
				c3.71,0.67,4.52,3.21,4.52,3.21S49.41,15.93,48.43,15.5z"/>
			<path class="st11" d="M59.3,21.12c1.49-0.13,3.03-0.87,3.96-2.03c0.35-0.44,0.68-0.92,0.8-1.47c0.12-0.55-0.01-1.18-0.43-1.55
				c-0.52-0.45-1.35-0.38-1.92,0c-0.57,0.38-0.94,1-1.24,1.62C60.06,18.51,59.3,21.12,59.3,21.12z"/>
			<path class="st4" d="M32.73,75.39c-3.6-3.18-7.21-6.35-10.81-9.53c-1.92-1.69-3.88-3.44-5.1-5.69
				c-2.61-4.84-1.11-11.14,2.42-15.36c3.53-4.22,8.7-6.71,13.9-8.53c5.2-1.81,10.6-3.09,15.56-5.49c3.11-1.5,6.23-3.75,7.08-7.09
				c0.51-2.01,0.08-4.24-1.14-5.92c-1.22-1.68-3.22-2.77-5.29-2.89"/>
			<path class="st4" d="M61.82,17.67c-0.98,3.02-4.82,4.86-6.57,7.48"/>
			<path class="st4" d="M48.05,21.15c0.76,0.8,1.66,1.46,2.32,2.34c1.39,1.86,1.51,4.87-0.55,6.74"/>
			<path class="st4" d="M28.64,38.07c3.18,2.45,7.36,4.08,11.37,4.24"/>
			<path class="st4" d="M21.36,42.54c-1.46-4.32,0.13-9.49,3.77-12.23"/>
		</g>
		<g>
			<path class="st11" d="M137.58,24.3c-0.17-0.53-0.16-1.19,0.23-1.59c0.31-0.32,0.84-0.46,1.25-0.28c3.16,1.39,2.82,6.32,2.82,6.32
				S138.88,28.32,137.58,24.3z"/>
			<path class="st11" d="M137.51,33.54c-2.05,3.7,5.22,3.41,7.84,1.24C145.35,34.77,139.27,30.36,137.51,33.54z"/>
			<path class="st11" d="M146.7,24.58c-0.49-0.68-0.67-1.68-0.13-2.33c0.4-0.48,1.1-0.63,1.71-0.51s1.53,0.68,1.92,1.17
				c2.39,2.98,1.27,5.89,1.27,5.89S147.5,25.69,146.7,24.58z"/>
			<path class="st11" d="M175.56,33.73c-0.18-0.58-0.14-1.28,0.31-1.68c0.28-0.25,0.68-0.35,1.06-0.32
				c0.38,0.03,0.74,0.17,1.09,0.32c0.74,0.34,1.32,0.93,1.67,1.66c0.9,1.85,0.29,4.14,0.29,4.14S176,35.16,175.56,33.73z"/>
			<path class="st11" d="M166.48,40.51c-1.29-1.13-3.25-1.46-4.82-0.78c-0.4,0.17-0.78,0.42-1.03,0.77
				c-0.57,0.79-0.37,1.96,0.22,2.73c0.6,0.78,1.5,1.25,2.39,1.66c1.62,0.73,4.13,0.88,5.85,1.32
				C169.1,46.22,169.09,42.8,166.48,40.51z"/>
			<path class="st4" d="M139.85,25.09c1.07,3.5,4.1,6.14,7.47,7.57c3.37,1.43,7.08,1.81,10.73,2.04c3.65,0.24,7.35,0.35,10.88,1.31
				c3.44,0.93,6.87,2.88,8.35,6.13c1.8,3.95,0.21,8.68-2.32,12.21c-2.52,3.53-5.92,6.38-8.37,9.97c-1.12,1.65-2.06,3.58-1.83,5.56
				c0.3,2.64,2.53,4.58,4.59,6.25"/>
			<path class="st4" d="M148.27,23.81c2.42,2.68,4.36,6.87,4.83,10.44"/>
			<path class="st4" d="M140.13,34.15c1.38,0.37,2.79,0.74,4.22,0.74c1.43,0,3.09-0.79,4.12-1.78"/>
			<path class="st4" d="M177.93,33.95c1.3,1.25,2.08,3.02,2.15,4.82c0.07,1.8-0.93,3.98-2.13,5.33"/>
			<path class="st4" d="M164.36,42.12c2.59,2.38,4.84,4.31,7.72,6.34c1.31,0.92,3.92,2.11,5.08,1.8"/>
		</g>
		<g>
			<path class="st9" d="M194.48,96.29c-0.68,0.39-1.4,0.73-2.13,1.04c-2.82,1.18-5.84,1.85-8.89,1.97
				c-4.44,0.17-9.01-0.81-13.28,0.45c-1.96,0.58-3.76,1.64-5.24,3.04c-0.15,0.07-0.3,0.15-0.45,0.24c-0.36-3.01,7.15-6.93,9.43-7.95
				c4.12-1.84,8.7-2.66,13.2-2.3c1.97,0.16,3.99,0.54,5.61,1.66C193.43,94.92,194.04,95.56,194.48,96.29z"/>
			<path class="st8" d="M187.12,94.57c1.97,0.16,3.99,0.54,5.61,1.66c1.63,1.12,2.77,3.12,2.39,5.06c-0.44,2.26-2.78,3.73-5.06,4
				c-2.28,0.28-4.57-0.35-6.82-0.81c-4.99-1.03-10.13-1.26-15.19-0.69c-1.26,0.14-2.46,0.39-3.56,1.04
				c-0.35-3.01,7.15-6.93,9.43-7.95C178.04,95.03,182.63,94.21,187.12,94.57z"/>
			<path class="st6" d="M166.45,102.93c3.73-3.27,13.29-5.5,20.05-4.78c2.04,0.22,4.09,0.82,5.66,2.14"/>
		</g>
	</g>
	<path class="st12" d="M159.49,66.14l36.38-0.08c4.27-0.01,7.74,3.44,7.75,7.71v0c0.01,4.27-3.44,7.74-7.71,7.75l-24.88,0.05"/>
	<path class="st12" d="M49.42,92.85L23.98,92.9c-2.41,0-4.36,1.96-4.35,4.37l0,0c0,2.41,1.96,4.36,4.37,4.35l7.42-0.02"/>
	<g>
		<path class="st13" d="M8.81,112.55c-8.72,0.02-8.9,13.02,2.19,12.99c11.09-0.02,156.57-0.32,163.43-0.34s7.58-10.72-0.9-10.7
			c-16.88,0.03-17.44-8.01-8.07-8.03"/>
		<path class="st3" d="M10.85,112.19c0.2,1.17-0.59,2.29-1.76,2.49c-1.17,0.2-2.29-0.59-2.49-1.76c-0.2-1.17,0.59-2.29,1.76-2.49
			C9.54,110.23,10.65,111.02,10.85,112.19z"/>
		<path class="st14" d="M169.65,106.53c0.2,1.17-0.59,2.29-1.76,2.49c-1.17,0.2-2.29-0.59-2.49-1.76c-0.2-1.17,0.59-2.29,1.76-2.49
			C168.33,104.57,169.45,105.36,169.65,106.53z"/>
	</g>
	<g>
		<path class="st9" d="M171.99,144.12L36.67,144.4c-1.81,0-3.27-1.46-3.28-3.26l-0.19-89.65c0-1.81,1.46-3.27,3.26-3.28l135.32-0.28
			c1.81,0,3.27,1.46,3.28,3.26l0.19,89.65C175.26,142.65,173.8,144.12,171.99,144.12z"/>
		<g>
			<path class="st15" d="M169.34,142.41l-135.32,0.28c-1.81,0-3.27-1.46-3.28-3.26l-0.18-89.65c0-1.81,1.46-3.27,3.26-3.28
				l135.32-0.28c1.81,0,3.27,1.46,3.28,3.26l0.18,89.65C172.61,140.94,171.15,142.4,169.34,142.41z"/>
			<path class="st7" d="M168.92,46.22L34.18,46.5c-1.97,0-3.56,1.6-3.55,3.57l0.01,3.09l141.86-0.29l-0.01-3.09
				C172.49,47.81,170.89,46.22,168.92,46.22z"/>
			<path class="st0" d="M34.34,142.69l20.36-0.04l-0.18-89.53L30.6,53.16l0.18,85.98C30.78,141.1,32.38,142.69,34.34,142.69z"/>
			<g>
				<path class="st7" d="M169.18,48.22c0.7,0,1.27,0.57,1.27,1.27l0.19,89.65c0,0.7-0.57,1.27-1.27,1.27l-135.32,0.28
					c-0.7,0-1.27-0.57-1.27-1.27l-0.19-89.65c0-0.7,0.57-1.27,1.27-1.27L169.18,48.22L169.18,48.22 M169.18,46.22
					C169.18,46.22,169.18,46.22,169.18,46.22L33.86,46.5c-1.81,0-3.27,1.47-3.26,3.28l0.19,89.65c0,1.8,1.47,3.26,3.27,3.26
					c0,0,0,0,0.01,0l135.32-0.28c1.81,0,3.27-1.47,3.26-3.28l-0.19-89.65C172.45,47.68,170.99,46.22,169.18,46.22L169.18,46.22z"/>
			</g>
			<path class="st15" d="M51.19,135.84l-15.53,0.03c-0.74,0-1.33-0.59-1.33-1.33l0,0c0-0.74,0.59-1.33,1.33-1.33l15.53-0.03
				c0.74,0,1.33,0.59,1.33,1.33v0C52.52,135.24,51.93,135.84,51.19,135.84z"/>
			<path class="st15" d="M46.57,75.11l-7.74,0.02c-2.82,0.01-5.11-2.28-5.12-5.1l-0.02-7.74c-0.01-2.82,2.28-5.11,5.1-5.12
				l7.74-0.02c2.82-0.01,5.11,2.28,5.12,5.1l0.02,7.74C51.67,72.81,49.39,75.1,46.57,75.11z"/>
			<path class="st0" d="M106.47,115.11l-46.34,0.1c-0.96,0-1.74-0.77-1.74-1.73v0c0-0.96,0.77-1.74,1.74-1.74l46.34-0.1
				c0.96,0,1.74,0.77,1.74,1.73v0C108.2,114.33,107.43,115.11,106.47,115.11z"/>
			<path class="st0" d="M103.78,62.09L67.2,62.17c-0.96,0-1.74-0.77-1.74-1.73v0c0-0.96,0.77-1.74,1.73-1.74l36.57-0.08
				c0.96,0,1.74,0.77,1.74,1.73v0C105.51,61.31,104.74,62.09,103.78,62.09z"/>
			<path class="st0" d="M161.91,99.28l-48.83,0.1c-0.96,0-1.74-0.77-1.74-1.73v0c0-0.96,0.77-1.74,1.73-1.74l48.83-0.1
				c0.96,0,1.74,0.77,1.74,1.73l0,0C163.65,98.5,162.87,99.28,161.91,99.28z"/>
			<path class="st0" d="M106.48,122.3l-46.34,0.1c-0.96,0-1.74-0.77-1.74-1.73l0,0c0-0.96,0.77-1.74,1.73-1.74l46.34-0.1
				c0.96,0,1.74,0.77,1.74,1.73v0C108.22,121.52,107.44,122.3,106.48,122.3z"/>
			<path class="st0" d="M106.49,129.49l-46.34,0.1c-0.96,0-1.74-0.77-1.74-1.73v0c0-0.96,0.77-1.74,1.73-1.74l46.34-0.1
				c0.96,0,1.74,0.77,1.74,1.73l0,0C108.23,128.71,107.45,129.49,106.49,129.49z"/>
			<path class="st0" d="M157.71,134.19l-40.29,0.08c-3.32,0.01-6.02-2.68-6.02-6l-0.03-13.53c-0.01-3.32,2.68-6.02,6-6.02
				l40.29-0.08c3.32-0.01,6.02,2.68,6.02,6l0.03,13.53C163.72,131.48,161.03,134.18,157.71,134.19z"/>
			<path class="st0" d="M38.41,49.76c0,0.63-0.51,1.15-1.14,1.15c-0.63,0-1.15-0.51-1.15-1.14c0-0.63,0.51-1.15,1.14-1.15
				C37.9,48.61,38.41,49.12,38.41,49.76z"/>
			<circle class="st0" cx="42.12" cy="49.75" r="1.15"/>
			<path class="st0" d="M48.12,49.74c0,0.63-0.51,1.15-1.14,1.15s-1.15-0.51-1.15-1.14c0-0.63,0.51-1.15,1.14-1.15
				S48.12,49.1,48.12,49.74z"/>
			
				<ellipse transform="matrix(0.0997 -0.995 0.995 0.0997 -5.7942 114.4794)" class="st0" cx="60.36" cy="60.44" rx="3.31" ry="3.31"/>
			<path class="st15" d="M50.28,77.9l-14.61,0.03c-0.36,0-0.66-0.29-0.66-0.65l0,0c0-0.36,0.29-0.66,0.65-0.66l14.61-0.03
				c0.36,0,0.66,0.29,0.66,0.65v0C50.93,77.61,50.64,77.9,50.28,77.9z"/>
			<path class="st15" d="M50.28,80.71l-14.61,0.03c-0.36,0-0.66-0.29-0.66-0.65l0,0c0-0.36,0.29-0.66,0.65-0.66l14.61-0.03
				c0.36,0,0.66,0.29,0.66,0.65v0C50.94,80.41,50.64,80.7,50.28,80.71z"/>
			<path class="st0" d="M67.13,86.63l-4.15,0.04l0.03,17.4l-3.58,0.01c-1.26,0-2.29-1.02-2.29-2.28l-0.07-32.17
				c0-1.28,1.03-2.32,2.31-2.32l7.71-0.02L67.13,86.63z"/>
			<g>
				<path class="st0" d="M90.77,67.24v1c2.76,0,5.01,2.24,5.01,5l0.05,24.75c0.01,2.76-2.24,5.02-5,5.02l-27.69,0.06
					c-2.76,0-5.01-2.24-5.01-5l-0.05-24.75c0-1.34,0.52-2.6,1.46-3.55s2.2-1.47,3.54-1.48l27.68-0.06L90.77,67.24 M90.77,67.24
					c0,0-0.01,0-0.01,0L63.07,67.3c-3.32,0.01-6.01,2.7-6,6.02l0.05,24.75c0.01,3.32,2.7,6,6.01,6c0,0,0.01,0,0.01,0l27.68-0.06
					c3.32-0.01,6.01-2.7,6-6.02l-0.05-24.75C96.77,69.93,94.08,67.24,90.77,67.24L90.77,67.24z"/>
			</g>
		</g>
		<path class="st0" d="M148.11,92.32l-39.29-8.88c-3.24-0.73-5.27-3.95-4.54-7.19l3.69-16.32c0.73-3.24,3.95-5.27,7.19-4.54
			l39.29,8.88c3.24,0.73,5.27,3.95,4.54,7.19l-3.69,16.32C154.57,91.02,151.35,93.05,148.11,92.32z"/>
		<g>
			<polygon class="st7" points="62.8,154.98 56.4,154.99 54.83,146.84 64.33,146.82 			"/>
			<path class="st0" d="M56.6,146.83c0,0.67-0.13,1.78,0.32,1.8c0.44,0.02,0.26-1.06,0.76-1.03c0.32,0.02-0.15,3.54,1.07,3.63
				c0.84,0.06,0.68-1.73,0.77-2.85c0.06-0.76,1.03-0.61,1.04-0.11c0.01,0.56-0.03,0.94,0,1.57c0.05,1.06,1.68,0.78,1.62-0.64
				c-0.06-1.42,0-2.38,0-2.38L56.6,146.83z"/>
			<g>
				<path class="st16" d="M55.07,151.76c-0.13,0-0.26-0.01-0.38-0.04c-0.47-0.1-0.8-0.35-0.98-0.74c-0.65-1.38,1.07-3.98,1.13-4.09
					l0.09,0.47c-0.02,0.03-1.51,2.26-0.92,3.5c0.14,0.3,0.39,0.48,0.76,0.56c0.1,0.02,0.21,0.03,0.32,0.03
					c2.31,0,6.25-4.3,6.29-4.35c0.16-0.19,0.46-0.01,0.36,0.15C61.55,147.46,57.55,151.75,55.07,151.76z"/>
			</g>
		</g>
		<g>
			<path class="st9" d="M122.34,40.23c-9.1-0.35-21.62,6.38-17.18,22.83c-0.1,1.39,0.74,2.38,1.62,2.11
				c0.89-0.27,0.11-2.91,0.11-2.91c1.51-12.23,4.35-14.35,9.16-14.3l11.28-0.02c2.79,0.41,7.86,2.36,8.62,12.15l2.81,0.52
				C138.97,53.54,137.26,40.8,122.34,40.23z"/>
			<path class="st17" d="M122.34,38.8c-9.1-0.35-21.62,6.38-17.18,22.83l1.73-0.8c1.51-12.23,4.35-14.35,9.16-14.3l11.28-0.02
				c2.79,0.41,7.99,2.89,8.75,12.68l2.67-0.01C138.97,52.11,137.26,39.37,122.34,38.8z"/>
			<path class="st18" d="M120.48,39.07l-1.35,2.97c0,0,0.16,1.67,1.8,1.64c1.64-0.03,1.86-0.79,1.86-0.79l0.21-3.41L120.48,39.07z"
				/>
			<path class="st18" d="M127.42,36.59c-1.54,2.72-2.22,3.57-4.24,3.98c-2.61,0.53-5.53-1.23-4.17-5.56
				c1.11-3.54,2.79-2.99,4.43-2.86C125.08,32.28,129.09,33.65,127.42,36.59z"/>
			<path class="st16" d="M121.3,34.44c-0.41-0.21-0.94-0.03-1.25,0.3c-0.33,0.34-0.48,0.86-0.35,1.31
				c-0.63,0.01-1.18,0.63-1.12,1.26c-0.43-1-0.2-2.05-0.28-3.08c-0.09-1.03,0.03-2.15,0.69-2.93c0.27-0.32,0.63-0.57,1-0.77
				c1.42-0.75,3.2-0.78,4.64-0.07c0.3,0.15,1.05,0.62,2.09,0.37c1.99-0.48,3.15,0.86,1.96,2.12c0.38,0.14,0.8,0.31,0.98,0.68
				c0.04,0.09,0.07,0.21,0.01,0.3c-0.04,0.06-0.11,0.09-0.18,0.11c-0.33,0.11-0.7,0.14-1.05,0.08c0.13,0.11,0.87,0.16,1.09,0.59
				c0.59,1.14-1.76,0.57-2.11,0.45c0.41,0.08,1.48,0.93,1.14,1.52c-0.07,0.12-1.52,0.96-3.04-0.81c-0.35-0.41-0.8-0.79-1.32-0.93
				c-0.41-0.11-0.84,0.04-1.24,0.19c-0.29,0.11-1.03,0.56-1.25,0.29C121.47,35.13,121.77,34.68,121.3,34.44z"/>
			<path class="st18" d="M136.37,59.19c-0.4,1.39-0.81,1.53-0.32,1.75c0.49,0.22,0.88-0.56,0.88-0.56l2.26,0.45
				c0,0-0.51-1.47-0.86-1.64C137.97,59.01,136.37,59.19,136.37,59.19z"/>
			<path class="st18" d="M106.88,60.84c0.29,0.73,0.38,0.74,0.79,1.62c0.79,1.68-1.05,4.34-2.2,1.44c-0.31-0.8-0.32-2.26-0.32-2.26
				L106.88,60.84z"/>
		</g>
		<g>
			<g>
				<path class="st16" d="M124.51,30.86c1.51,0.11,3.28-0.89,4.52,0.37c0.27,0.27,0.73-0.08,0.53-0.41
					c-1.12-1.85-3.41-0.51-5.05-0.53C124.14,30.29,124.15,30.83,124.51,30.86L124.51,30.86z"/>
				<path class="st16" d="M125.18,29.64c-1.04,0.1-2.04-0.35-3.08-0.22c-0.95,0.12-1.86,0.57-2.53,1.26
					c-0.35,0.36,0.09,0.92,0.53,0.68c0.92-0.5,1.69-1.05,2.79-0.97c0.85,0.06,1.57,0.3,2.39-0.01
					C125.64,30.24,125.63,29.59,125.18,29.64L125.18,29.64z"/>
				<path class="st16" d="M119.07,31.18c-0.88,0.48-1.34,1.2-1.41,2.21c-0.05,0.73-0.07,2.24,0.76,2.53
					c0.28,0.1,0.56-0.26,0.39-0.51c-0.36-0.52-0.42-1.42-0.4-2.01c0.02-0.79,0.35-1.35,0.94-1.85
					C119.56,31.37,119.29,31.05,119.07,31.18L119.07,31.18z"/>
				<path class="st16" d="M130.67,33.75c-0.36-0.69-1.67-1.63-2.38-0.85c-0.16,0.18-0.08,0.42,0.13,0.5c0.3,0.12,0.63,0.02,0.94,0.1
					c0.36,0.09,0.65,0.28,0.89,0.57C130.45,34.31,130.8,34,130.67,33.75L130.67,33.75z"/>
			</g>
		</g>
		<g>
			<path class="st14" d="M80.5,102.43c4.77,1.75,8.91,7.22,7.96,11.2c-1.07,4.49-4.17,6.43-4.17,6.43l-0.98-1.8
				c0,0,2.48-3.87,2.26-5.7c-0.34-2.93-4.04-4.89-4.04-4.89L80.5,102.43z"/>
			<path class="st16" d="M68.75,153.13c0,0-2.93,1.18-3.66,1.85l5.8-0.01l0-1.84L68.75,153.13z"/>
			<path class="st16" d="M81.58,153.01c0,0,0.83,0.96,0.98,1.93l-3.96,0.01c0.07-0.67,0.35-1.31,0.74-1.93L81.58,153.01z"/>
			<path class="st19" d="M81.82,153.1l-2.7,0c0.05-3.18-0.6-14.04-1.24-22.15c-0.37-4.76-0.74-8.58-0.96-9.35l1.45-0.32l5.46-1.21
				C84.77,124.34,82.61,143.96,81.82,153.1z"/>
			<path class="st20" d="M71.88,121.43c-2.11,3.32-2.65,27.32-3.54,31.77l2.56,0.15c0,0,2.94-15.13,9.21-32.14L71.88,121.43z"/>
			<path class="st9" d="M81.2,121.2c-1.24,3.36-2.35,6.65-3.33,9.75c-0.37-4.76-0.74-8.58-0.96-9.35l1.45-0.32L81.2,121.2z"/>
			<path class="st20" d="M71.88,121.43c-2.11,3.32-2.65,27.32-3.54,31.77l2.56,0.15c0,0,2.94-15.13,9.21-32.14L71.88,121.43z"/>
			<path class="st18" d="M73.49,94.64c0,0-1.64,6.25,2.46,6.25l-0.24,1.6l3.11,0.34l-0.67-2.23c0,0,0.62-3.93,0.66-4.64
				C78.88,94.63,75.17,92.29,73.49,94.64z"/>
			<g>
				
					<rect x="62.15" y="87.63" transform="matrix(1 -1.973264e-03 1.973264e-03 1 -0.1778 0.124)" class="st16" width="1.21" height="5.1"/>
				<path class="st7" d="M66.13,87.62l-6.75,0.01c-0.54,0-0.97-0.43-0.97-0.97l0,0c0-0.54,0.43-0.97,0.97-0.97l6.75-0.01
					c0.54,0,0.97,0.43,0.97,0.97v0C67.1,87.19,66.66,87.62,66.13,87.62z"/>
			</g>
			<path class="st18" d="M61.82,94.06c-0.03-1.16-0.99-0.85-0.46-2.74c0.33-1.17,2.74,0.19,2.44,1c-0.3,0.81-0.65,2.09-0.65,2.09
				L61.82,94.06z"/>
			<path class="st7" d="M75.98,102.11c-6.13,0.41-6.53,2.47-9.28,2.15c-4.06-0.48-3.35-8.02-2.85-10.72l-2.43,0
				c0,0-4.37,17.18,9.44,14c-0.53,3.01,2.9,7.92-0.43,13.89c5.24,1.42,10.13,1.77,14.32-0.03c-0.73-0.99,1.5-10.97-2.88-18.15
				C81.03,101.85,76.43,102.08,75.98,102.11z"/>
			<path class="st7" d="M75.98,102.11c-6.13,0.41-6.53,2.47-9.28,2.15c-4.06-0.48-3.35-8.02-2.85-10.72l-2.43,0
				c0,0-4.37,17.18,9.44,14c-0.53,3.01,2.9,7.92-0.43,13.89c5.24,1.42,10.13,1.77,14.32-0.03c-0.73-0.99,1.5-10.97-2.88-18.15
				C81.03,101.85,76.43,102.08,75.98,102.11z"/>
			<path class="st17" d="M75.14,95.84c0.4,0.1,0.87,0.18,1.08,0.52c0.14,0.22,0.13,0.49,0.12,0.75c0.07-0.27,0.37-0.46,0.66-0.43
				c0.29,0.03,0.53,0.29,0.53,0.57c0,0.13-0.04,0.26-0.09,0.38c-0.12,0.3-0.27,0.6-0.46,0.87c0.5,0.18,0.92,1.65,1.17,2.1
				c0.84-0.21,2.72-0.93,2.88-3.92c0.08-1.39-0.35-3.05-1.85-3.98c-1.06-0.65-2.83-0.66-4.05-0.35c-0.99,0.25-2.56,1.24-1.83,2.39
				C73.67,95.32,74.48,95.67,75.14,95.84z"/>
			<path class="st17" d="M80.39,93.94c0.57-0.19,1.29-0.09,1.64,0.39c0.27,0.37,0.24,0.86,0.33,1.3c0.04,0.21,0.12,0.43,0.28,0.58
				c0.2,0.18,0.49,0.22,0.76,0.23c0.66,0.04,1.33-0.05,1.98,0.06c0.65,0.11,1.32,0.48,1.5,1.09c0.1,0.34,0.05,0.71,0.17,1.04
				c0.18,0.5,0.71,0.78,1.17,1.06c0.98,0.61,1.81,1.44,2.41,2.4c0.38,0.61,0.67,1.28,0.72,1.99c0.05,0.71,0.56,1.64,0.42,2.34
				c-0.15,0.75-0.88,1.77-2.34,2.24c-2.52,0.81-3.32,1.16-5.73-0.27c-0.29-0.17-0.86-0.76-1.12-0.97c-0.21-0.17-0.34-0.4-0.41-0.65
				c-0.2-0.69,0.03-1.44,0.39-2.07s0.85-1.19,1.22-1.81c0.22-0.38,0.4-0.8,0.38-1.23c-0.01-0.16-0.05-0.33-0.17-0.45
				c-0.1-0.1-0.25-0.15-0.39-0.18c-0.53-0.1-1.11,0.01-1.59-0.23c-0.47-0.23-0.72-0.8-0.58-1.28c0.09-0.32,0.34-0.6,0.41-0.93
				c0.1-0.47-0.2-0.96-0.61-1.24c-0.41-0.28-0.92-0.39-1.42-0.47c-0.25-0.04-0.5-0.08-0.7-0.22c-0.25-0.18-0.36-0.49-0.36-0.78
				C78.75,94.93,79.51,94.23,80.39,93.94z"/>
		</g>
		<g>
			<g>
				<path class="st17" d="M79.91,96.55c2.49,0.74-0.73,3.49,0.63,4.86c0.37,0.38,0.77,0.38,1.25,0.48c0.9,0.2,1.29-0.54,1.34,1.58
					c0,0.06-0.24,0.89-0.25,1.01c-0.04,0.38,0.53,0.42,0.64,0.09c0.27-0.82,0.92-1.81,0.47-2.67c-0.49-0.94-1.25-0.4-2.01-0.71
					c-0.36-0.43-0.73-0.85-1.09-1.28c0.1-0.24,0.21-0.47,0.31-0.71c0.07-0.16,0.16-0.3,0.22-0.46c0.11-0.32,0.2-0.63,0.18-0.97
					c-0.07-0.91-0.75-1.42-1.58-1.58C79.78,96.16,79.68,96.48,79.91,96.55L79.91,96.55z"/>
			</g>
		</g>
		<g>
			<g>
				<path class="st17" d="M73.69,92.82c2.53-0.95,4.4-0.75,6.58,0.88c0.31,0.23,0.57-0.24,0.37-0.48c-1.62-2.09-5.14-2.46-7.09-0.63
					C73.46,92.68,73.56,92.87,73.69,92.82L73.69,92.82z"/>
			</g>
		</g>
		<g>
			<polygon class="st18" points="152.24,100.07 151.23,102.11 153.7,103.13 153.97,100.78 			"/>
			<path class="st18" d="M153.73,93.44c-5.62,2.45-3.32,8.37,0.1,7.68c1.66-0.34,2.51-5.7,2.51-5.7L153.73,93.44z"/>
			<path class="st11" d="M155.6,92.6c-0.18-0.34-0.36-0.71-0.66-0.95c-0.3-0.24-0.79-0.32-1.07-0.06c-0.38,0.35-0.16,1.01,0.23,1.36
				c-0.33,0.04-0.72-0.19-0.96,0.04c-0.18,0.17-0.12,0.48-0.01,0.7c0.25,0.54,0.65,1,1.15,1.32c-0.28,0.16-0.62,0.47-0.44,0.75
				c0.05,0.08,0.13,0.13,0.17,0.21c0.11,0.18,0,0.41-0.11,0.59c-0.18,0.29-0.37,0.58-0.57,0.85c0.19-0.26,0.66-0.16,0.81,0.14
				c0.14,0.3,0.02,0.66-0.2,0.91c-0.12,0.14-0.28,0.25-0.45,0.29c-0.15,0.04-0.83,2.14-0.3,2.55c0.66,0.51,2.89,0.07,3.21-0.51
				c0.32,0.35,0.8,0.62,1.26,0.52s0.82-0.67,0.57-1.07c0.51,0.19,1.12,0.02,1.46-0.39c0.34-0.41,0.4-1.05,0.12-1.51
				c0.28-0.08,0.33-0.46,0.26-0.73c-0.14-0.56-0.6-1.04-1.16-1.19c0.28,0,0.51-0.28,0.52-0.57c0.01-0.28-0.13-0.55-0.31-0.77
				c-0.53-0.65-1.15-0.82-1.93-0.92C156.38,94.05,155.95,93.24,155.6,92.6z"/>
			<path class="st16" d="M150.34,152.74c0,0-3.29,1.58-3.73,2.07c0,0,6.47,0.29,6.97-0.01c0.51-0.31-1.04-2.06-1.04-2.06
				L150.34,152.74z"/>
			<path class="st16" d="M162.56,150.95c0,0-2.89,2.22-3.22,2.8c0,0,6.82-1.01,6.82-1.46c0-0.45-1.44-1.8-1.44-1.8L162.56,150.95z"
				/>
			<path class="st21" d="M153.51,122.26c-0.12,0.67-4.62,18.44,8.25,29.09l3.73-0.86c0,0-4.34-4.07-6.39-11.4
				c-1.93-6.93-0.4-7.61,0.76-11.42c1.28-4.22,0.33-7.29,0.33-7.29L153.51,122.26z"/>
			<path class="st17" d="M147.36,122.21c-2.04,4.88-5.55,21.5,2.09,30.87l3.81-0.01c0,0-3-3.29-3.34-10.93
				c-0.34-7.64,1.61-10.99,2.98-13.52c1.37-2.52,2.64-6.81,2.64-6.81L147.36,122.21z"/>
			<path class="st14" d="M144.67,91.96c-1.01,3.57-1.35,10.17,3.73,12.83l3.4-0.83c0,0-6.12-3.21-4.81-11.33L144.67,91.96z"/>
			<path class="st7" d="M135.31,90.13l2.64-0.33c0,0-0.32,11.07,12.47,12.01c9.76,0.71,10.53,19.03,10.53,19.03
				c-3.15,2.12-8.43,2.76-15.2,2.28c0,0,0.43-13.07-0.64-16.65C145.11,106.47,134.48,103.13,135.31,90.13z"/>
			<path class="st18" d="M132.08,88.12c-0.45,0.52,1.42,1.17,3.22,2.01l2.31-0.29c0,0,0.03-0.46,0-0.94
				c-0.03-0.48-0.27-0.76-0.54-0.34s-1.44,0.55-2,0.18C134.53,88.36,132.53,87.6,132.08,88.12z"/>
			<path class="st18" d="M144.67,91.96c-0.85-0.83-0.62-0.78-0.62-0.78l2.59,0.58c0,0,0.57-1.26,1.05-1.3
				c0.48-0.04-0.36,0.87-0.17,1.21c0.19,0.34-0.53,0.97-0.53,0.97L144.67,91.96z"/>
		</g>
		<g>
			<g>
				<path class="st11" d="M156.95,93.93c0.46,0.23,1,0.26,1.4,0.59c0.35,0.29,0.54,0.77,0.31,1.19c-0.25,0.44,0.38,0.98,0.73,0.56
					c1.25-1.49-0.79-3.36-2.38-2.84C156.81,93.51,156.73,93.82,156.95,93.93L156.95,93.93z"/>
			</g>
		</g>
		<g>
			<g>
				<path class="st11" d="M159.3,98.76c0.89,0.57,0.07,1.16-0.45,1.59c-0.32,0.26,0.09,0.67,0.41,0.53
					c0.55-0.24,1.06-0.65,1.17-1.28c0.1-0.62-0.29-1.1-0.81-1.38C159.26,98.04,158.96,98.55,159.3,98.76L159.3,98.76z"/>
			</g>
		</g>
		<g>
			<g>
				<path class="st11" d="M153.42,101.4c1.2,0.91,3.18,0.78,4.12-0.46c0.23-0.3-0.21-0.67-0.5-0.5c-1.14,0.67-2.14,0.99-3.46,0.56
					C153.34,100.92,153.24,101.26,153.42,101.4L153.42,101.4z"/>
			</g>
		</g>
		<g>
			<g>
				<path class="st11" d="M159.49,94.62c0.5,0.67-0.17,1.47-0.53,2.03c-0.18,0.29,0.21,0.51,0.44,0.34
					c0.49-0.38,0.94-0.85,0.92-1.52c-0.01-0.46-0.28-0.86-0.7-1.01C159.52,94.42,159.43,94.54,159.49,94.62L159.49,94.62z"/>
			</g>
		</g>
	</g>
	<g>
		<polygon class="st14" points="83.47,12.44 82.42,9.86 92.59,6 		"/>
		<polygon class="st3" points="83.98,10.85 92.59,6 86.6,12.09 		"/>
		<polygon class="st3" points="80.09,8.81 92.59,6 82.42,9.86 		"/>
		<polygon class="st7" points="83.98,10.85 83.47,12.44 85.02,11.34 		"/>
	</g>
	<path class="st13" d="M82.27,12.09c-2.66-0.45-6.26,2.24-4.71,5.04c0.53,0.95,3.25,0.54,3.05-0.51c-0.1-0.5-0.71-0.72-1.22-0.66
		c-2.97,0.34-3.09,2.83-2.96,3.46c0.68,3.27,5.7,2.17,7.38,1.7"/>
</g>
</svg>
