<?xml version="1.0" encoding="utf-8"?>
<!-- Generator: Adobe Illustrator 23.0.1, SVG Export Plug-In . SVG Version: 6.00 Build 0)  -->
<svg version="1.1" id="Camada_1" xmlns="http://www.w3.org/2000/svg" xmlns:xlink="http://www.w3.org/1999/xlink" x="0px" y="0px"
	 viewBox="0 0 1011 291" style="enable-background:new 0 0 1011 291;" xml:space="preserve">
<style type="text/css">
	.st0{fill:#FF7400;}
	.st1{fill:#FFFFFF;}
</style>
<g>
	<g>
		<path class="st0" d="M717.37,256.24c-0.66,0.66-1.06,1.15-1.22,1.47c-0.17,0.33-0.57,0.66-1.22,0.98
			c-0.33,0.66-1.14,1.63-2.44,2.93h-0.49l-1.47,1.47c-1.63,1.95-3.51,3.91-5.62,5.86c-2.12,1.96-4.15,3.75-6.11,5.38
			c-4.24,4.24-9.12,6.84-14.66,7.82h-1.47c-3.26,0.66-6.28,0.33-9.04-0.98c-2.77-1.3-5.46-3.09-8.06-5.38
			c-3.58-3.58-4.89-7.65-3.91-12.22v-0.98c0.98-5.21,2.04-10.26,3.18-15.15c1.14-4.89,2.37-9.61,3.66-14.17l10.26-27.86
			c0.98-4.23,2.6-8.63,4.89-13.2c5.21-12.05,10.42-23.94,15.64-35.67c5.21-11.73,10.58-23.29,16.13-34.7l0.98-3.42
			c1.3-4.23,2.76-7.98,4.4-11.24c1.63-3.25,3.74-6.67,6.35-10.26c0.65-0.65,1.05-1.54,1.22-2.69c0.16-1.14,0.57-2.52,1.22-4.15
			l19.06-49.36c0.65-2.28,1.47-4.47,2.44-6.6c0.98-2.11,1.95-4.31,2.93-6.6c0.98-1.63,1.54-3.34,1.71-5.13
			c0.16-1.79,0.57-3.5,1.22-5.13c0.98-2.93,2.6-4.56,4.89-4.89c1.3-0.65,2.44-0.98,3.42-0.98c0.98,0,1.79-0.16,2.44-0.49
			c1.63,0.33,2.6,0.66,2.93,0.98c1.3,0.66,2.44,1.31,3.42,1.95c1.3,1.95,1.79,4.08,1.47,6.35v4.89c-0.66,1.31-1.06,2.53-1.22,3.67
			c-0.17,1.15-0.57,2.04-1.22,2.69c-1.95,4.57-3.83,9.04-5.62,13.44c-1.79,4.4-3.83,8.72-6.11,12.95
			c-4.89,10.1-9.53,20.04-13.93,29.81c-4.4,9.77-8.55,19.72-12.46,29.81c-1.95,4.89-3.83,9.77-5.62,14.66
			c-1.79,4.89-3.83,9.77-6.11,14.66l-14.66,31.28c-0.98,2.93-2.04,5.79-3.18,8.55c-1.15,2.77-2.37,5.46-3.67,8.06
			c-0.66,1.63-1.39,3.5-2.2,5.62c-0.82,2.12-1.71,4.15-2.69,6.11c-5.86,14.01-10.92,28.67-15.15,43.98c0,0.66-0.08,1.55-0.24,2.69
			c-0.17,1.15-0.25,2.53-0.25,4.15v1.95c0,2.61,1.14,3.59,3.42,2.93c0.98-0.32,1.87-0.73,2.69-1.22c0.81-0.49,1.71-1.05,2.69-1.71
			c1.95-1.95,4.07-3.5,6.35-4.64c2.27-1.14,4.56-2.69,6.84-4.64l1.95-1.95h0.49l5.38-4.89v0.49c2.27-1.95,4.4-4.07,6.35-6.35
			c0.65-0.98,1.38-1.79,2.2-2.44c0.81-0.65,1.54-1.3,2.2-1.95l16.13-12.71c1.95-1.63,3.82-3.09,5.62-4.4
			c1.79-1.3,3.83-2.76,6.11-4.4h0.98c0.32,0.66,0.49,1.47,0.49,2.44c-0.66,1.63-1.39,3.18-2.2,4.64c-0.82,1.47-2.04,2.69-3.67,3.67
			c-0.66,0.66-1.31,1.31-1.95,1.95c-0.66,0.66-1.3,1.3-1.95,1.95c-1.63,1.64-2.93,3.35-3.91,5.13c-0.98,1.79-2.28,3.5-3.91,5.13
			c-1.63,1.31-3.02,2.69-4.15,4.15c-1.14,1.47-2.37,3.02-3.66,4.64l-6.35,8.31c-0.66,0.66-1.06,1.15-1.22,1.47
			c-0.17,0.33-0.57,0.66-1.22,0.98L717.37,256.24z"/>
		<path class="st0" d="M805.81,267.97c-4.24,0-8.31-0.65-12.22-1.95c-0.66-0.32-1.31-0.73-1.95-1.22c-0.66-0.49-1.31-0.89-1.95-1.22
			c-2.93-3.58-4.24-7-3.91-10.26c0.32-1.95,0.81-3.74,1.47-5.38c0.65-1.63,0.81-3.09,0.49-4.4c0-1.3-0.66-1.95-1.95-1.95
			c-0.33,0.33-0.66,0.49-0.98,0.49c-0.33,0-0.66,0.17-0.98,0.49c-2.28,3.26-4.57,5.7-6.84,7.33c-1.63,1.31-3.1,2.44-4.4,3.42
			c-1.3,0.98-2.77,1.95-4.4,2.93c-1.63,1.31-3.18,2.69-4.64,4.15c-1.47,1.47-3.18,2.69-5.13,3.66c-7.17,5.54-15.64,7.82-25.41,6.84
			c-2.6,0-5.54-1.3-8.8-3.91c-1.3-1.95-2.44-3.42-3.42-4.4c-2.28-2.93-2.44-5.7-0.49-8.31c0.98-2.27,1.88-4.56,2.69-6.84
			c0.82-2.28,1.22-4.72,1.22-7.33c0.98-3.25,1.95-5.21,2.93-5.86c1.63-2.6,3.26-4.89,4.89-6.84c1.63-1.96,3.58-3.91,5.86-5.86
			c1.63-1.63,3.25-3.34,4.89-5.13c1.63-1.79,3.25-3.5,4.89-5.13c0.98-1.3,2.12-2.44,3.42-3.42c1.3-0.98,2.6-2.28,3.91-3.91
			c1.63-1.3,3.01-2.61,4.15-3.91c1.14-1.3,2.36-2.6,3.66-3.91c4.89-5.21,10.09-8.8,15.64-10.75l13.19-5.86
			c0.98-0.65,2.12-1.05,3.42-1.22c1.3-0.16,2.6-0.4,3.91-0.73c1.95-0.98,4.07-0.98,6.35,0h0.98c1.95,0.98,4.15,1.63,6.6,1.95
			c2.44,0.33,4.8,0.66,7.09,0.98c3.25,0.66,5.45,1.88,6.6,3.66c1.14,1.79,1.38,3.83,0.73,6.11c0,4.57-1.15,9.12-3.42,13.68
			c-0.98,2.61-2.12,5.21-3.42,7.82c-1.31,2.61-2.28,5.21-2.93,7.82c-0.66,1.63-1.31,3.18-1.95,4.64c-0.66,1.47-1.31,3.02-1.95,4.64
			c-0.98,2.61-1.95,5.21-2.93,7.82c-0.98,2.61-1.79,5.06-2.44,7.33v3.42c0,0.33,0.32,0.73,0.98,1.22c0.65,0.49,1.3,0.73,1.95,0.73
			c1.63,0,2.93-0.16,3.91-0.49c2.6-0.98,5.29-2.11,8.06-3.42c2.76-1.3,5.45-2.6,8.06-3.91c3.91-2.6,7.98-5.29,12.22-8.06
			c4.23-2.76,8.31-5.45,12.22-8.06c5.54-2.93,11.07-5.38,16.62-7.33c0.98-0.32,2.11-0.49,3.42-0.49c0.65,0,1.3,0.33,1.95,0.98
			c0.65,0.66,0.98,1.3,0.98,1.95l-2.93,4.4c-1.95,1.95-3.91,3.91-5.86,5.86c-1.95,1.96-3.91,3.75-5.86,5.38
			c-4.57,2.93-8.8,6.03-12.71,9.29c-3.91,3.26-7.99,6.35-12.22,9.28c-2.28,1.64-4.73,3.18-7.33,4.64c-2.61,1.47-5.22,3.02-7.82,4.64
			C819.01,266.67,812.98,267.97,805.81,267.97z M805.33,192.22c0-1.95-0.82-2.93-2.44-2.93c-1.31,0.66-2.44,0.98-3.42,0.98
			c-0.98,0-1.95,0.33-2.93,0.98c-2.61,0.66-4.89,1.55-6.84,2.69c-1.95,1.15-3.91,2.53-5.86,4.15c-2.61,1.95-5.21,4.24-7.82,6.84
			c-2.61,2.61-5.22,5.21-7.82,7.82c-3.91,4.57-7.66,9.37-11.24,14.42c-3.59,5.05-7.17,10.02-10.75,14.91v1.95
			c-0.33,0.66-0.41,1.06-0.24,1.22c0.16,0.17,0.24,0.41,0.24,0.73h3.42c0.98-0.98,1.95-1.71,2.93-2.2c0.98-0.49,1.95-1.22,2.93-2.2
			c4.23-3.58,8.47-7.25,12.71-10.99c4.23-3.74,8.31-7.41,12.22-11c3.58-3.25,7.09-6.43,10.51-9.53c3.42-3.09,6.76-6.27,10.02-9.53
			c0.98-0.98,1.79-1.87,2.44-2.69c0.65-0.81,1.3-2.03,1.95-3.66c0.32-0.65,0.4-1.05,0.24-1.22
			C805.4,192.79,805.33,192.55,805.33,192.22z"/>
		<path class="st0" d="M992,199.55c0,0.98-0.33,1.63-0.98,1.95c-0.33,0.98-2.53,1.88-6.6,2.69c-4.08,0.82-8.48,1.64-13.2,2.44
			c-4.73,0.82-9.12,1.63-13.19,2.44c-4.08,0.82-6.28,1.39-6.6,1.71c-1.63,1.31-2.77,3.1-3.42,5.38c0,0.98-0.17,1.64-0.49,1.96
			c0,1.63-0.33,2.93-0.98,3.91c-0.66,5.54-2.04,10.83-4.15,15.88c-2.12,5.06-4.64,9.86-7.57,14.42
			c-3.59,5.86-7.82,11.16-12.71,15.88c-4.89,4.73-10.1,9.21-15.64,13.44c-2.61,1.95-5.38,3.59-8.31,4.89
			c-2.93,1.3-5.86,2.77-8.8,4.4c-1.63,0.33-3.91,0.17-6.84-0.49c-2.93-0.65-5.05-2.28-6.35-4.89c-2.28-1.96-3.1-4.23-2.44-6.84
			c0-2.6,0.49-4.96,1.47-7.09c0.98-2.11,1.95-4.47,2.93-7.09l0.49-0.49c2.93-4.56,6.11-9.12,9.53-13.68
			c3.42-4.56,7.09-8.63,10.99-12.22c1.63-1.63,3.42-3.42,5.38-5.38c1.95-1.96,3.74-3.91,5.38-5.86c0.98-1.63,2.2-3.01,3.66-4.15
			c1.47-1.14,3.01-2.2,4.64-3.18c1.63-1.63,2.93-3.01,3.91-4.15c0.98-1.14,2.12-2.52,3.42-4.16c1.3-2.93,0.81-5.54-1.47-7.82
			c-3.26-3.25-6.19-5.05-8.8-5.38c-0.98-0.32-2.77-0.49-5.38-0.49c-2.61,0.33-5.54,1.63-8.8,3.91c-0.98,0.98-1.95,1.88-2.93,2.69
			c-0.98,0.82-1.95,1.71-2.93,2.69c-0.33,0.33-1.55,2.12-3.67,5.38c-2.12,3.26-4.32,6.77-6.6,10.51c-2.28,3.75-4.4,7.25-6.35,10.51
			c-1.95,3.26-2.93,5.05-2.93,5.38c-0.98,1.63-2.2,3.59-3.67,5.86c-1.47,2.28-2.53,4.24-3.18,5.86c-1.63,4.57-3.58,8.06-5.86,10.51
			c-2.27,2.44-5.54,3.18-9.77,2.2c-2.6,0-3.91-1.3-3.91-3.91v-3.91c0.98-3.25,1.95-6.35,2.93-9.29c0.98-2.93,2.28-5.86,3.91-8.8
			c1.95-2.93,3.26-5.86,3.91-8.8c1.31-3.25,2.93-7.16,4.89-11.73c1.95-4.56,3.99-9.29,6.11-14.17c2.11-4.89,4.07-9.69,5.86-14.42
			c1.79-4.72,3.5-8.55,5.13-11.48c0-0.65,0.49-1.79,1.47-3.42c2.93-6.84,6.11-13.76,9.53-20.77c3.42-7,6.6-14.09,9.53-21.26
			c1.63-2.93,3.09-5.78,4.4-8.55c1.3-2.76,2.6-5.62,3.91-8.55c0.65-2.6,1.63-5.29,2.93-8.06c1.3-2.76,2.44-5.45,3.42-8.06
			c2.6-5.54,5.21-11,7.82-16.37c2.6-5.38,5.21-10.83,7.82-16.37c1.95-3.58,3.83-7.16,5.62-10.75c1.79-3.58,3.66-7.16,5.62-10.75
			c1.63-3.58,2.93-7.25,3.91-11c0.98-3.74,1.14-7.58,0.49-11.48c-0.66-0.65-0.33-1.3,0.98-1.95c0.98-1.63,2.2-2.69,3.67-3.18
			c1.47-0.49,3.01-1.05,4.64-1.71c1.63-0.32,3.18-0.24,4.64,0.24c1.47,0.49,2.85,1.06,4.15,1.71c0.65,0.66,1.3,1.79,1.95,3.42
			c0.65,1.63,0.65,2.93,0,3.91c-0.33,0.66-0.49,1.47-0.49,2.44c-2.61,5.22-4.97,10.35-7.09,15.39c-2.12,5.05-4.48,10.02-7.09,14.9
			c-2.28,4.57-4.4,9.21-6.35,13.93c-1.95,4.73-4.24,9.21-6.84,13.44c-3.91,8.15-7.74,16.29-11.48,24.43
			c-3.75,8.15-7.74,16.13-11.97,23.94c-2.28,4.89-4.48,9.61-6.6,14.17c-2.12,4.57-4.32,9.12-6.6,13.68
			c-1.95,3.91-3.75,7.99-5.38,12.22c-1.63,4.24-2.93,8.64-3.91,13.19c-0.66,0.33-0.66,0.82,0,1.47c0.65,0.66,1.3,0.98,1.95,0.98
			h1.95c1.63-0.32,3.09-0.57,4.4-0.73c1.3-0.16,2.76-0.57,4.4-1.22c1.95-0.32,3.66-0.49,5.13-0.49s3.34,0,5.62,0
			c2.28,0,4.56,0.17,6.84,0.49c2.28,0.33,4.4,0.98,6.35,1.95c1.63,0.66,3.34,1.47,5.13,2.44c1.79,0.98,3.34,2.28,4.64,3.91
			c0.98,0.33,1.95,0.98,2.93,1.95c1.3,0.98,3.09,1.47,5.38,1.47c0.32,0,2.52,0.08,6.6,0.24c4.07,0.17,8.47,0.33,13.2,0.49
			c4.72,0.17,9.12,0.25,13.19,0.25c4.07,0,6.43,0,7.09,0c0.65,0,1.05,0.08,1.22,0.24C990.94,198.99,991.34,199.23,992,199.55z
			 M922.61,238.65c0-0.65-0.33-1.14-0.98-1.47c-0.66-0.32-1.15-0.32-1.47,0c-2.61,0.98-5.05,2.61-7.33,4.89
			c-3.26,3.59-6.35,7.17-9.29,10.75c-2.93,3.59-5.7,7.5-8.31,11.73c0,0.66-0.08,1.06-0.24,1.22c-0.17,0.17-0.24,0.57-0.24,1.22v0.98
			c0,0.66,0.08,0.98,0.24,0.98c0.16,0,0.24,0.17,0.24,0.49c0.32,0.33,0.98,0.49,1.95,0.49c1.63-0.65,2.76-1.38,3.42-2.2
			c0.65-0.81,1.63-1.87,2.93-3.18c1.95-1.63,4.07-4.07,6.35-7.33c0.98-0.98,1.95-1.95,2.93-2.93c0.98-0.98,1.95-2.11,2.93-3.42
			c1.3-1.63,2.36-2.93,3.18-3.91c0.81-0.98,1.54-2.12,2.2-3.42c0.65-0.65,0.98-1.05,0.98-1.22c0-0.16,0.16-0.4,0.49-0.73
			c0.32-0.65,0.4-1.14,0.24-1.47C922.68,239.79,922.61,239.3,922.61,238.65z"/>
	</g>
	<g>
		<path class="st1" d="M61.08,80.3h15.08v18.4H61.08c-15.08,0-22.63,6.13-22.63,18.4h37.71v18.4H38.45v73.58H15.83v-91.98
			C15.83,92.56,30.91,80.3,61.08,80.3z"/>
		<path class="st1" d="M117.19,209.06H94.56V80.3h22.63V209.06z"/>
		<path class="st1" d="M191.14,209.06h-15.08c-30.17,0-45.25-9.2-45.25-27.59c0-18.4,15.08-27.59,45.25-27.59h37.71
			c0-12.26-7.54-18.4-22.63-18.4h-45.25v-18.4h45.25c30.17,0,45.25,12.26,45.25,36.79v18.4
			C236.39,196.8,221.31,209.06,191.14,209.06z M176.05,190.67h15.08c15.08,0,22.63-6.13,22.63-18.39h-37.71
			c-15.08,0-22.63,3.07-22.63,9.2C153.43,187.6,160.97,190.67,176.05,190.67z"/>
		<path class="st1" d="M300.04,190.67h15.08v18.4h-15.08c-30.17,0-45.25-12.26-45.25-36.79V80.3h22.63v36.79h37.71v18.4h-37.71
			v36.79C277.41,184.54,284.95,190.67,300.04,190.67z"/>
		<path class="st1" d="M384.29,117.09c30.17,0,45.25,12.26,45.25,36.79h-22.63c0-12.26-7.54-18.4-22.63-18.4H369.2
			c-15.08,0-22.63,6.13-22.63,18.4v18.4c0,12.26,7.54,18.39,22.63,18.39h15.08c15.08,0,22.63-6.13,22.63-18.39h22.63
			c0,24.53-15.08,36.79-45.25,36.79H369.2c-30.17,0-45.25-12.26-45.25-36.79v-18.4c0-24.53,15.08-36.79,45.25-36.79H384.29z"/>
		<path class="st1" d="M488.32,117.09h15.08c30.17,0,45.25,12.26,45.25,36.79v18.4c0,24.53-15.08,36.79-45.25,36.79h-15.08
			c-30.17,0-45.25-12.26-45.25-36.79v-18.4C443.06,129.35,458.15,117.09,488.32,117.09z M503.4,135.48h-15.08
			c-15.09,0-22.63,6.13-22.63,18.4v18.4c0,12.26,7.54,18.39,22.63,18.39h15.08c15.09,0,22.63-6.13,22.63-18.39v-18.4
			C526.02,141.61,518.48,135.48,503.4,135.48z"/>
		<path class="st1" d="M607.43,117.09h15.08c8.83,0,16.37,1.04,22.63,3.13V80.3h22.63v91.98c0,24.53-15.08,36.79-45.25,36.79h-15.08
			c-30.17,0-45.25-12.26-45.25-36.79v-18.4C562.17,129.35,577.26,117.09,607.43,117.09z M622.51,135.48h-15.08
			c-15.08,0-22.63,6.13-22.63,18.4v18.4c0,12.26,7.54,18.39,22.63,18.39h15.08c15.08,0,22.63-6.13,22.63-18.39v-18.4
			C645.14,141.61,637.59,135.48,622.51,135.48z"/>
		<path class="st1" d="M727.64,117.09h15.08c30.17,0,45.25,12.26,45.25,36.79v18.4h-82.96c0,12.26,7.54,18.39,22.63,18.39h45.25
			v18.4h-45.25c-30.17,0-45.25-12.26-45.25-36.79v-18.4C682.39,129.35,697.47,117.09,727.64,117.09z M742.72,135.48h-15.08
			c-15.08,0-22.63,6.13-22.63,18.4h60.34C765.35,141.61,757.81,135.48,742.72,135.48z"/>
	</g>
</g>
</svg>
